<svg width="181" height="180" viewBox="0 0 181 180" fill="none" xmlns="http://www.w3.org/2000/svg">
<path d="M99.1002 166.2C139.362 166.2 172 133.561 172 93.2999C172 53.0383 139.362 20.3999 99.1002 20.3999C58.8386 20.3999 26.2002 53.0383 26.2002 93.2999C26.2002 133.561 58.8386 166.2 99.1002 166.2Z" fill="#EDEDED"/>
<path d="M87.8147 23.3239L35.2002 65.6636V132.7C35.2002 143.746 44.1545 152.7 55.2002 152.7H145.155C156.2 152.7 165.155 143.746 165.155 132.7V65.6636L112.943 23.3651C105.622 17.4343 95.1549 17.4171 87.8147 23.3239Z" fill="#F06111"/>
<rect x="53.9519" y="33.5667" width="92.887" height="115.63" rx="24" fill="white"/>
<path d="M61.9441 51.0001C61.9441 49.6746 63.0186 48.6001 64.3441 48.6001H134.218C135.544 48.6001 136.618 49.6746 136.618 51.0001C136.618 52.3256 135.544 53.4001 134.218 53.4001H64.3441C63.0186 53.4001 61.9441 52.3256 61.9441 51.0001Z" fill="#F06111"/>
<path d="M61.9441 66.6C61.9441 65.2745 63.0186 64.2 64.3441 64.2H134.218C135.544 64.2 136.618 65.2745 136.618 66.6C136.618 67.9254 135.544 69 134.218 69H64.3441C63.0186 69 61.9441 67.9254 61.9441 66.6Z" fill="#5E5B5A"/>
<path d="M61.9441 82.2C61.9441 80.8746 63.0186 79.8 64.3441 79.8H134.218C135.544 79.8 136.618 80.8746 136.618 82.2C136.618 83.5255 135.544 84.6 134.218 84.6H64.3441C63.0186 84.6 61.9441 83.5255 61.9441 82.2Z" fill="#5E5B5A"/>
<path d="M61.9441 97.8001C61.9441 96.4747 63.0186 95.4001 64.3441 95.4001H134.218C135.544 95.4001 136.618 96.4747 136.618 97.8001C136.618 99.1256 135.544 100.2 134.218 100.2H64.3441C63.0186 100.2 61.9441 99.1256 61.9441 97.8001Z" fill="#5E5B5A"/>
<path fill-rule="evenodd" clip-rule="evenodd" d="M35.2002 65.5398V132.7C35.2002 143.746 44.1545 152.7 55.2002 152.7H94.8622C114.322 152.7 122.321 127.728 106.482 116.422L35.2002 65.5398Z" fill="#DBDBDB"/>
<path fill-rule="evenodd" clip-rule="evenodd" d="M165.155 65.5398V132.7C165.155 143.746 156.2 152.7 145.155 152.7H46.412L165.155 65.5398Z" fill="#DBDBDB"/>
<path fill-rule="evenodd" clip-rule="evenodd" d="M165.4 66.6695L50.8924 152.7H46.1133L163.992 64.7305L165.4 66.6695Z" fill="#F06111"/>
<path d="M10.0649 119.601L10.0651 119.601C12.7805 121.353 14.5475 123.771 15.4489 126.88L15.9291 126.74L15.4483 126.877C15.6334 127.526 16.3106 127.899 16.9578 127.71L16.9584 127.71C17.6006 127.521 17.9735 126.843 17.7845 126.197C16.7173 122.518 14.6048 119.629 11.3812 117.548L10.0649 119.601ZM10.0649 119.601C9.50163 119.237 9.33698 118.483 9.69983 117.916M10.0649 119.601L9.69983 117.916M9.69983 117.916C10.0609 117.348 10.8157 117.183 11.3811 117.548L9.69983 117.916Z" fill="#F06111" stroke="#F06111"/>
<path d="M49.6682 128.092L49.6679 128.092C48.7907 128.54 48.0208 128.518 47.3977 128.206C46.8062 127.91 46.3867 127.352 46.1359 126.683L46.1358 126.683C45.897 126.045 45.8044 125.27 45.7947 124.548C45.7865 123.939 45.8371 123.338 45.9245 122.844C45.403 122.324 44.8378 121.848 44.2366 121.42C39.3129 117.91 31.9719 119.142 26.2233 124.569C25.2897 125.451 24.5638 126.856 24.0077 128.628C23.4543 130.392 23.0842 132.47 22.8296 134.647L22.8296 134.647C22.1393 140.542 22.3913 147.038 22.5108 150.117C22.5287 150.58 22.5437 150.965 22.552 151.26L22.552 151.261C22.5596 151.554 22.5499 151.794 22.5332 151.974C22.5249 152.064 22.5146 152.143 22.503 152.208C22.4942 152.258 22.4783 152.339 22.4469 152.413C22.223 152.946 21.7989 153.097 21.5413 153.146L21.5413 153.146L21.536 153.147C21.1773 153.212 20.8735 153.142 20.6291 153.015L20.6265 153.014C20.2921 152.837 20.0314 152.527 19.9159 152.094L19.9149 152.091C19.8539 151.855 19.8445 151.567 19.8504 151.31L19.8506 151.305C19.8524 151.25 19.8565 151.197 19.86 151.152C19.8609 151.141 19.8617 151.132 19.8625 151.122C19.8652 151.088 19.8675 151.061 19.8691 151.034C19.8711 151 19.8714 150.978 19.8709 150.965C19.8708 150.964 19.8708 150.964 19.8708 150.964C19.6806 150.298 19.457 149.646 19.2278 148.977C19.1941 148.879 19.1603 148.781 19.1265 148.681L19.1261 148.68C18.2579 146.121 17.133 143.715 15.8754 141.299L15.8754 141.299C15.5375 140.65 15.201 139.999 14.8642 139.347C11.1823 132.22 7.46091 125.017 1.50809 119.701L1.50796 119.701C1.00933 119.256 0.959278 118.486 1.40584 117.981C1.85144 117.473 2.62111 117.431 3.12392 117.876L3.12532 117.878C9.39529 123.475 13.3117 131.047 17.083 138.339C17.3998 138.951 17.7157 139.562 18.0317 140.169L18.0318 140.169C18.7059 141.465 19.3472 142.765 19.9356 144.092C19.9277 140.645 20.0639 136.542 20.6179 132.814C20.9305 130.708 21.3864 128.71 22.0228 126.99C22.6572 125.276 23.4835 123.806 24.5569 122.792L24.557 122.792C31.083 116.63 39.7117 115.199 45.6452 119.43L45.6453 119.43C46.1005 119.755 46.5406 120.104 46.961 120.475C50.1764 115.256 56.5723 113.228 62.2415 115.831C62.8555 116.112 63.1193 116.837 62.8442 117.446L62.8442 117.446L62.8428 117.449C62.5628 118.058 61.8439 118.332 61.2292 118.051L61.2286 118.051C56.5107 115.885 51.1766 117.728 48.7157 122.306C49.2053 122.913 49.6489 123.56 50.034 124.246C50.2329 124.599 50.6084 125.389 50.6694 126.111C50.7391 126.907 50.4638 127.685 49.6682 128.092Z" fill="#F06111" stroke="#F06111"/>
<path fill-rule="evenodd" clip-rule="evenodd" d="M159.685 37.7661C160.412 34.8199 160.365 31.9826 160.452 28.9942C160.469 28.4106 160.009 27.9254 159.425 27.9078C158.841 27.8902 158.354 28.3508 158.337 28.9344C158.254 31.7682 158.321 34.4648 157.631 37.2633C157.491 37.8294 157.839 38.4025 158.406 38.5396C158.972 38.6802 159.546 38.3322 159.685 37.7661Z" fill="#F06111"/>
<path fill-rule="evenodd" clip-rule="evenodd" d="M165.86 43.4757C170.79 38.9825 175.436 33.2025 178.683 27.3663C178.966 26.8565 178.781 26.2131 178.271 25.9318C177.76 25.6506 177.116 25.8334 176.832 26.3432C173.693 31.9861 169.2 37.5762 164.432 41.9182C164.002 42.312 163.972 42.98 164.365 43.4089C164.759 43.8379 165.429 43.8695 165.86 43.4757Z" fill="#F06111"/>
<path fill-rule="evenodd" clip-rule="evenodd" d="M167.109 48.3838C171.618 49.1256 176.266 47.8599 180.366 46.0704C180.901 45.8348 181.145 45.2126 180.911 44.6817C180.677 44.1473 180.053 43.9047 179.518 44.1367C175.784 45.768 171.56 46.9775 167.453 46.3025C166.877 46.2075 166.332 46.5978 166.238 47.1708C166.142 47.7439 166.533 48.2889 167.109 48.3838Z" fill="#F06111"/>
<path fill-rule="evenodd" clip-rule="evenodd" d="M36.8651 27.3691C37.5076 27.1402 38.1836 26.8359 38.705 26.3954C39.3242 25.8722 39.576 25.1984 39.7451 24.4891C39.9622 23.5778 40.049 22.6071 40.3123 21.6944C40.4097 21.3554 40.5973 21.2273 40.6778 21.1704C40.8813 21.0268 41.0869 20.9884 41.2804 21.0028C41.5097 21.0194 41.8246 21.1062 42.0318 21.4906C42.0613 21.5456 42.0997 21.6294 42.1255 21.7442C42.1444 21.8284 42.1566 22.0917 42.1765 22.2002C42.2263 22.4676 42.2681 22.7349 42.3072 23.0037C42.4375 23.8983 42.5125 24.6582 42.9242 25.4801C43.4828 26.5959 44.0426 27.2786 44.8018 27.581C45.5358 27.8735 46.4134 27.8185 47.5348 27.5892C47.6415 27.5633 47.7471 27.5412 47.8516 27.5231C48.346 27.4367 48.8186 27.7612 48.9157 28.2538C49.0128 28.746 48.6986 29.2256 48.2086 29.3338C48.1064 29.3563 48.0056 29.3777 47.9059 29.3973C46.3905 29.7724 44.6363 31.1113 43.6169 32.2836C43.3027 32.645 42.8426 33.6556 42.3733 34.3003C42.027 34.7759 41.6378 35.0893 41.311 35.2001C41.0921 35.2747 40.9075 35.2633 40.755 35.2256C40.5334 35.171 40.3496 35.0509 40.2085 34.86C40.1317 34.7556 40.0604 34.6156 40.0265 34.4369C40.0102 34.3509 40.0084 34.1323 40.0088 34.0334C39.9131 33.7044 39.7961 33.3831 39.7108 33.0512C39.5073 32.2592 39.1082 31.7578 38.6341 31.0954C38.1907 30.4754 37.7144 30.0859 37.0162 29.775C36.9253 29.7529 36.1924 29.5734 35.9336 29.4704C35.5555 29.3194 35.3753 29.0664 35.3099 28.9302C35.1988 28.6991 35.1873 28.4971 35.2095 28.3287C35.2424 28.0802 35.3539 27.8676 35.5518 27.6959C35.6744 27.5892 35.8575 27.4854 36.1027 27.4348C36.2921 27.3953 36.7946 27.3724 36.8651 27.3691ZM41.1648 26.0783C41.1988 26.154 41.235 26.23 41.2734 26.3068C42.0916 27.941 43.0065 28.8534 44.1187 29.2961L44.156 29.3105C43.412 29.8629 42.7385 30.4802 42.2238 31.0721C42.0118 31.3158 41.7312 31.822 41.4281 32.3412C41.1526 31.4458 40.7022 30.8129 40.1358 30.0209C39.703 29.4165 39.2496 28.9616 38.6924 28.5909C39.1248 28.369 39.5372 28.109 39.8965 27.8055C40.4947 27.3001 40.8901 26.7144 41.1648 26.0783Z" fill="#F06111"/>
</svg>
