<svg width="180" height="180" viewBox="0 0 180 180" fill="none" xmlns="http://www.w3.org/2000/svg">
<path d="M93.3525 151.43C126.932 151.43 154.154 123.497 154.154 89.04C154.154 54.5832 126.932 26.6504 93.3525 26.6504C59.7729 26.6504 32.5513 54.5832 32.5513 89.04C32.5513 123.497 59.7729 151.43 93.3525 151.43Z" fill="#EDEDED"/>
<path fill-rule="evenodd" clip-rule="evenodd" d="M36.3818 133.766C34.0227 129.654 33.2324 125.29 34.0808 120.596C34.1806 120.042 33.8234 119.505 33.2814 119.401C32.7421 119.294 32.2212 119.658 32.1214 120.212C31.1834 125.408 32.0537 130.242 34.6657 134.795C34.9441 135.284 35.5582 135.446 36.0303 135.164C36.5055 134.878 36.6631 134.252 36.3818 133.766Z" fill="#F06111"/>
<path fill-rule="evenodd" clip-rule="evenodd" d="M13.8031 150.206C13.8835 150.934 14.0273 151.656 14.2411 152.359C14.3361 152.672 14.5776 153.295 14.9175 153.684C15.2783 154.101 15.7358 154.286 16.2334 154.104C16.8939 153.862 17.2121 153.467 17.336 153.044C17.4557 152.637 17.3899 152.164 17.1606 151.684C16.722 150.767 15.6496 149.802 14.9326 149.366C14.8989 148.639 14.9324 147.911 15.0293 147.191C15.7515 141.824 20.9016 137.913 27.5644 137.518C29.8967 137.381 32.9077 139.144 35.843 141.386C40.4139 144.877 44.7518 149.611 46.0628 150.954C46.3873 151.285 46.614 151.444 46.6698 151.465C46.9403 151.569 47.126 151.471 47.2397 151.386C47.4027 151.263 47.4841 151.117 47.5235 150.974C47.5758 150.78 47.5561 150.56 47.4205 150.335C47.3449 150.211 47.2121 150.069 47.0602 149.929C46.9539 149.833 46.8218 149.745 46.7675 149.652C46.4216 149.056 46.113 148.442 45.7978 147.829C44.7346 145.77 43.9164 143.647 43.1717 141.448C40.805 134.461 38.1001 127.301 38.3015 119.798C38.3104 119.462 38.0518 119.178 37.7225 119.167C37.3948 119.155 37.1209 119.419 37.1105 119.757C36.9041 127.41 39.6334 134.718 42.0465 141.843C42.6802 143.714 43.3662 145.531 44.2041 147.301C41.9444 145.015 38.7332 141.943 35.5116 139.637C32.6466 137.587 29.7558 136.165 27.4886 136.299C20.1897 136.731 14.6391 141.139 13.8494 147.017C13.7651 147.645 13.7232 148.282 13.7285 148.917C8.78409 147.604 3.86076 150.277 2.21844 155.262C2.11259 155.582 2.2808 155.929 2.5918 156.039C2.90444 156.147 3.24198 155.978 3.34782 155.658C4.82783 151.166 9.348 148.824 13.8031 150.206ZM15.1288 151.004C15.1955 151.34 15.2793 151.672 15.3783 152.003C15.4323 152.179 15.5478 152.505 15.7189 152.761C15.7595 152.821 15.8367 152.899 15.8732 152.934C16.0448 152.869 16.1613 152.801 16.1947 152.686C16.2371 152.543 16.1715 152.385 16.0913 152.217C15.8904 151.795 15.513 151.356 15.1288 151.004Z" fill="#F06111"/>
<path fill-rule="evenodd" clip-rule="evenodd" d="M35.8427 141.386C32.9074 139.143 29.8965 137.381 27.5641 137.518C20.9014 137.913 15.7512 141.824 15.029 147.191C14.9321 147.911 14.8986 148.639 14.9323 149.366C15.6494 149.802 16.7217 150.767 17.1603 151.684C17.3896 152.164 17.4554 152.637 17.3357 153.044C17.2119 153.467 16.8936 153.862 16.2331 154.104C15.7355 154.286 15.278 154.101 14.9172 153.684C14.5773 153.295 14.3359 152.672 14.2408 152.359C14.027 151.656 13.8832 150.934 13.8028 150.206C9.34772 148.824 4.82755 151.166 3.34754 155.658C3.2417 155.978 2.90416 156.147 2.59153 156.039C2.28052 155.929 2.11231 155.582 2.21816 155.262C3.75853 150.586 8.18522 147.945 12.8084 148.718C13.1144 148.769 13.4213 148.835 13.7282 148.917C13.7275 148.838 13.7276 148.758 13.7284 148.679C13.7292 148.606 13.7305 148.533 13.7325 148.46C13.737 148.29 13.7449 148.121 13.7559 147.952C13.7763 147.639 13.8075 147.327 13.8491 147.017C14.6388 141.139 20.1894 136.731 27.4883 136.299C29.7555 136.165 32.6463 137.587 35.5113 139.637C37.9599 141.39 40.4026 143.585 42.4259 145.541C43.0647 146.159 43.6616 146.752 44.2038 147.301C43.8439 146.541 43.5121 145.772 43.2004 144.994C42.7863 143.96 42.4078 142.91 42.0463 141.843C41.861 141.296 41.6738 140.748 41.4863 140.199C39.2313 133.593 36.9197 126.822 37.1103 119.757C37.1206 119.419 37.3946 119.155 37.7222 119.167C38.0516 119.178 38.3101 119.461 38.3012 119.798C38.1168 126.667 40.3685 133.249 42.5664 139.674C42.7692 140.267 42.9715 140.858 43.1715 141.448C43.9162 143.647 44.7343 145.77 45.7975 147.829C45.8376 147.907 45.8777 147.985 45.9176 148.063C46.1919 148.598 46.4654 149.132 46.7672 149.652C46.8051 149.717 46.8811 149.78 46.9597 149.844C46.9936 149.872 47.0279 149.9 47.0599 149.929C47.2118 150.069 47.3446 150.211 47.4203 150.335C47.5559 150.56 47.5755 150.78 47.5232 150.974C47.4838 151.117 47.4024 151.263 47.2394 151.386C47.1257 151.471 46.94 151.569 46.6695 151.465C46.6137 151.444 46.387 151.285 46.0626 150.954C45.8921 150.779 45.6703 150.547 45.4035 150.268C43.6192 148.4 39.8191 144.423 35.8427 141.386ZM46.3468 152.348C46.2268 152.302 46.1288 152.236 46.0927 152.212C46.0322 152.171 45.9672 152.123 45.8998 152.069C45.7641 151.96 45.5993 151.812 45.4143 151.623L45.4128 151.622C45.2368 151.441 45.0102 151.204 44.7391 150.921C42.9456 149.044 39.2049 145.13 35.2936 142.143L35.2935 142.143C33.8486 141.039 32.4138 140.076 31.0753 139.408C29.7221 138.733 28.5543 138.405 27.617 138.46C21.2195 138.84 16.5812 142.555 15.94 147.32C15.8717 147.827 15.8377 148.339 15.8392 148.849C16.1529 149.08 16.4826 149.36 16.7908 149.667C17.2419 150.116 17.7014 150.673 17.9859 151.268L17.9861 151.269C18.2848 151.894 18.4216 152.617 18.2163 153.316C17.9982 154.06 17.4432 154.663 16.542 154.993L16.5414 154.993C15.5997 155.337 14.769 154.933 14.2313 154.313C13.7576 153.77 13.4691 152.99 13.363 152.64C13.1945 152.086 13.0667 151.523 12.9761 150.957C9.17672 150.071 5.47468 152.149 4.21871 155.961L4.2183 155.962C3.94745 156.78 3.085 157.206 2.29724 156.933L2.29152 156.931L2.29153 156.931C1.5081 156.654 1.0771 155.776 1.34716 154.959C3.02298 149.873 7.8297 146.983 12.8466 147.769C12.8683 147.474 12.8989 147.18 12.9381 146.888L12.9381 146.888C13.8064 140.425 19.8494 135.806 27.4353 135.357L27.4355 135.357C28.7655 135.278 30.2038 135.656 31.6354 136.281C33.0762 136.909 34.5718 137.815 36.0373 138.863C37.9887 140.26 39.9288 141.926 41.6581 143.529C41.4934 143.073 41.3338 142.614 41.1777 142.153L41.1776 142.153C40.9902 141.6 40.8002 141.044 40.6094 140.485C38.364 133.912 35.9955 126.979 36.191 119.731L36.1911 119.728C36.2173 118.873 36.912 118.193 37.7538 118.224C38.5915 118.252 39.243 118.972 39.2205 119.824L39.2205 119.824C39.041 126.51 41.2349 132.927 43.4422 139.384C43.642 139.969 43.8419 140.553 44.0401 141.139L44.0401 141.139C44.777 143.315 45.5775 145.388 46.6101 147.387L46.611 147.389C46.6519 147.468 46.6923 147.547 46.7324 147.625C46.9925 148.133 47.2401 148.616 47.5099 149.087C47.5103 149.088 47.5106 149.088 47.511 149.088C47.5217 149.097 47.5347 149.108 47.5525 149.122C47.5822 149.147 47.6246 149.182 47.6683 149.221L47.6754 149.228L47.6754 149.228C47.8405 149.381 48.0526 149.594 48.1989 149.833L48.2026 149.839C48.4703 150.283 48.5313 150.774 48.4096 151.226L48.4081 151.231C48.3181 151.558 48.1266 151.887 47.7861 152.145L47.7781 152.151L47.7781 152.151C47.5256 152.338 47.0136 152.605 46.3468 152.348ZM15.8725 151.843C15.6678 151.544 15.3998 151.252 15.1285 151.004C15.1952 151.34 15.2791 151.672 15.378 152.002C15.3927 152.05 15.4119 152.11 15.4356 152.175C15.4691 152.268 15.5115 152.375 15.5624 152.482C15.5625 152.482 15.5626 152.482 15.5627 152.482C15.5639 152.485 15.5651 152.488 15.5663 152.49C15.5672 152.492 15.568 152.494 15.5688 152.495C15.6127 152.586 15.6626 152.678 15.7186 152.761C15.7592 152.821 15.8365 152.899 15.873 152.934C16.0445 152.869 16.1611 152.801 16.1944 152.686C16.2054 152.648 16.2092 152.61 16.2072 152.571C16.205 152.527 16.1956 152.482 16.1815 152.436C16.1808 152.434 16.1802 152.432 16.1796 152.43C16.1579 152.361 16.1258 152.29 16.091 152.217C16.0324 152.094 15.9589 151.969 15.8745 151.846C15.8739 151.845 15.8732 151.844 15.8725 151.843Z" fill="#F06111"/>
<path fill-rule="evenodd" clip-rule="evenodd" d="M161.869 12.0271C162.437 12.4713 162.968 12.9684 163.446 13.5173C163.66 13.7616 164.057 14.2936 164.208 14.7928C164.372 15.3242 164.292 15.8219 163.885 16.1671C163.344 16.6251 162.849 16.7025 162.432 16.5947C162.03 16.4914 161.668 16.1912 161.384 15.743C160.842 14.8863 160.585 13.4469 160.587 12.5915C159.997 12.1893 159.37 11.8453 158.718 11.5612C153.858 9.44548 147.945 11.977 144.198 17.644C142.886 19.628 142.817 23.1844 143.188 26.9202C143.765 32.7371 145.501 38.9859 145.952 40.8296C146.063 41.2851 146.08 41.5665 146.068 41.6261C146.017 41.918 145.84 42.0312 145.711 42.0881C145.524 42.1683 145.36 42.1653 145.22 42.1267C145.031 42.0733 144.857 41.9431 144.738 41.7082C144.674 41.5783 144.623 41.3884 144.584 41.1827C144.558 41.0397 144.552 40.8783 144.502 40.7829C144.181 40.1724 143.825 39.5857 143.474 38.9935C142.297 37.0012 140.94 35.192 139.482 33.4083C134.85 27.7404 130.246 21.6857 123.866 18.0157C123.58 17.8509 123.475 17.4775 123.635 17.182C123.792 16.887 124.154 16.7812 124.443 16.9457C130.951 20.6879 135.665 26.8397 140.39 32.6196C141.63 34.137 142.798 35.6731 143.849 37.3188C143.096 34.1563 142.172 29.7517 141.895 25.7315C141.649 22.1562 141.942 18.8805 143.216 16.9518C147.321 10.7437 153.855 8.11422 159.177 10.4325C159.747 10.6808 160.301 10.9702 160.829 11.3005C162.267 6.27177 167.027 3.30508 172.04 4.41458C172.362 4.48532 172.566 4.81155 172.499 5.142C172.429 5.47297 172.114 5.6836 171.793 5.61286C167.275 4.61317 162.998 7.39398 161.869 12.0271ZM161.857 13.6041C162.104 13.8353 162.339 14.0796 162.565 14.3362C162.685 14.4742 162.898 14.7432 163.025 15.0253C163.054 15.0916 163.08 15.1997 163.09 15.25C162.948 15.3678 162.831 15.4355 162.718 15.4058C162.576 15.3697 162.478 15.2312 162.379 15.0743C162.128 14.6807 161.954 14.1231 161.857 13.6041Z" fill="#F06111"/>
<path fill-rule="evenodd" clip-rule="evenodd" d="M143.188 26.9202C142.817 23.1844 142.886 19.628 144.197 17.644C147.944 11.977 153.857 9.44551 158.718 11.5612C159.37 11.8453 159.997 12.1893 160.587 12.5915C160.584 13.4469 160.842 14.8863 161.384 15.743C161.668 16.1912 162.03 16.4915 162.432 16.5948C162.849 16.7025 163.343 16.6251 163.884 16.1671C164.292 15.822 164.371 15.3242 164.208 14.7928C164.057 14.2936 163.659 13.7617 163.446 13.5173C162.968 12.9685 162.437 12.4714 161.869 12.0271C162.998 7.39402 167.275 4.6132 171.793 5.6129C172.114 5.68363 172.429 5.47301 172.499 5.14203C172.566 4.81158 172.362 4.48535 172.04 4.41462C167.338 3.37398 162.858 5.9192 161.134 10.3884C161.02 10.6842 160.918 10.9884 160.829 11.3005C160.763 11.2593 160.697 11.2187 160.63 11.1787C160.568 11.1419 160.507 11.1057 160.444 11.0699C160.3 10.987 160.154 10.907 160.007 10.83C159.735 10.6875 159.458 10.555 159.177 10.4325C153.855 8.11425 147.321 10.7437 143.216 16.9518C141.941 18.8805 141.649 22.1562 141.895 25.7315C142.105 28.7871 142.69 32.0648 143.289 34.8504C143.478 35.7297 143.668 36.56 143.849 37.3188C143.398 36.612 142.925 35.9255 142.433 35.2519C141.781 34.3571 141.097 33.4854 140.39 32.6197C140.027 32.1759 139.664 31.7299 139.301 31.2829C134.931 25.9092 130.451 20.4006 124.442 16.9457C124.154 16.7813 123.792 16.8871 123.635 17.182C123.475 17.4776 123.58 17.851 123.866 18.0157C129.707 21.3757 134.06 26.7346 138.308 31.9655C138.7 32.448 139.091 32.9296 139.482 33.4083C140.94 35.192 142.296 37.0013 143.473 38.9935C143.518 39.0689 143.563 39.1441 143.608 39.2194C143.915 39.7355 144.221 40.2501 144.502 40.7829C144.537 40.8496 144.55 40.9485 144.564 41.0509C144.57 41.0949 144.576 41.1397 144.583 41.1827C144.623 41.3884 144.674 41.5783 144.738 41.7083C144.857 41.9432 145.031 42.0733 145.22 42.1268C145.36 42.1653 145.524 42.1683 145.711 42.0881C145.839 42.0312 146.017 41.9181 146.068 41.6262C146.08 41.5665 146.063 41.2851 145.952 40.8296C145.894 40.5898 145.813 40.2755 145.716 39.8973C145.069 37.3677 143.69 31.9805 143.188 26.9202ZM146.973 41.795C146.996 41.6656 146.991 41.5455 146.989 41.5012C146.986 41.4271 146.979 41.345 146.968 41.2579C146.947 41.0824 146.908 40.8615 146.845 40.6017L146.844 40.5997C146.784 40.3522 146.701 40.0309 146.603 39.6466C145.953 37.1045 144.597 31.8022 144.103 26.8247L144.103 26.8245C143.92 24.9856 143.85 23.2277 143.978 21.7063C144.107 20.1681 144.432 18.971 144.959 18.1737C148.556 12.7323 154.043 10.5516 158.358 12.4299C158.818 12.6302 159.264 12.8624 159.69 13.1255C159.722 13.5201 159.788 13.9545 159.886 14.3832C160.03 15.0106 160.261 15.7015 160.613 16.2572L160.613 16.2575C160.983 16.8413 161.518 17.3325 162.208 17.51C162.942 17.6995 163.731 17.5199 164.47 16.8951L164.47 16.8946C165.241 16.2414 165.328 15.3024 165.086 14.5108C164.874 13.8149 164.37 13.1609 164.131 12.8882C163.755 12.4558 163.349 12.0544 162.921 11.684C164.129 7.88306 167.765 5.68695 171.599 6.53531L171.6 6.53559C172.423 6.7166 173.222 6.17521 173.397 5.34122L173.399 5.33517L173.399 5.33517C173.568 4.50276 173.055 3.67326 172.233 3.49209C167.119 2.36035 162.236 5.11279 160.321 9.93532C160.063 9.80309 159.801 9.67934 159.537 9.56406L159.536 9.56392C153.685 7.01503 146.721 9.9698 142.455 16.422L142.455 16.4222C141.707 17.5536 141.286 19.0145 141.074 20.5958C140.861 22.1873 140.852 23.9692 140.978 25.7981C141.145 28.2331 141.544 30.7967 141.999 33.1423C141.702 32.7631 141.4 32.3872 141.094 32.0134L141.094 32.0133C140.727 31.5644 140.359 31.1119 139.99 30.6572C135.642 25.3086 131.056 19.6669 124.892 16.1225L124.889 16.1208C124.16 15.7055 123.236 15.9691 122.829 16.7262C122.424 17.4788 122.692 18.422 123.416 18.8387L123.416 18.8388C129.102 22.109 133.346 27.3328 137.616 32.5883C138.003 33.064 138.389 33.5399 138.777 34.0146L138.777 34.0147C140.22 35.7798 141.544 37.5479 142.687 39.4827L142.688 39.4845C142.734 39.5612 142.779 39.6373 142.824 39.7128C143.115 40.2021 143.392 40.6681 143.648 41.1475C143.648 41.1479 143.648 41.1484 143.649 41.1488C143.65 41.1628 143.653 41.1797 143.656 41.203C143.661 41.2416 143.669 41.297 143.679 41.3558L143.681 41.3653L143.681 41.3653C143.724 41.5891 143.794 41.8854 143.919 42.1367L143.922 42.143C144.157 42.6068 144.536 42.9121 144.976 43.0365L144.981 43.038C145.301 43.1262 145.674 43.1263 146.065 42.9588L146.074 42.9549L146.074 42.9549C146.36 42.8285 146.846 42.5142 146.973 41.795ZM162.178 14.69C162.032 14.3564 161.926 13.9706 161.857 13.6042C162.104 13.8353 162.339 14.0796 162.565 14.3362C162.597 14.3737 162.637 14.421 162.68 14.4756C162.74 14.5528 162.807 14.6446 162.871 14.7444C162.871 14.7446 162.871 14.7448 162.871 14.745C162.873 14.7474 162.874 14.7498 162.876 14.7522C162.877 14.7538 162.878 14.7554 162.879 14.757C162.933 14.8423 162.983 14.9331 163.025 15.0254C163.054 15.0916 163.079 15.1998 163.09 15.25C162.948 15.3678 162.831 15.4355 162.718 15.4058C162.681 15.3964 162.647 15.38 162.615 15.3581C162.579 15.3336 162.546 15.3023 162.515 15.2662C162.514 15.2646 162.512 15.263 162.511 15.2614C162.465 15.2071 162.422 15.1425 162.378 15.0743C162.305 14.9596 162.239 14.8309 162.179 14.6934C162.179 14.6923 162.178 14.6911 162.178 14.69Z" fill="#F06111"/>
<path fill-rule="evenodd" clip-rule="evenodd" d="M136.261 23.2838C133.69 19.3078 130.212 16.6691 125.727 15.3977C125.198 15.2475 124.884 14.6831 125.03 14.1374C125.172 13.5929 125.719 13.2717 126.248 13.4218C131.212 14.8302 135.067 17.7484 137.914 22.1506C138.22 22.6212 138.094 23.259 137.64 23.5709C137.182 23.8845 136.564 23.7556 136.261 23.2838Z" fill="#F06111"/>
<path d="M55.5413 139.886V47.8822C55.5413 45.7976 57.1881 44.1077 59.2197 44.1077H127.73C129.762 44.1077 131.409 45.7976 131.409 47.8822V139.886C131.409 141.97 129.762 143.66 127.73 143.66H59.2197C57.1881 143.66 55.5413 141.97 55.5413 139.886Z" fill="#DBDBDB"/>
<path fill-rule="evenodd" clip-rule="evenodd" d="M82.21 42.2203V37.0304C82.21 34.9458 83.8569 33.2559 85.8884 33.2559H100.142C102.174 33.2559 103.821 34.9458 103.821 37.0304V42.2203H82.21ZM92.7854 39.8613C94.0551 39.8613 95.0844 38.8051 95.0844 37.5022C95.0844 36.1993 94.0551 35.1431 92.7854 35.1431C91.5157 35.1431 90.4864 36.1993 90.4864 37.5022C90.4864 38.8051 91.5157 39.8613 92.7854 39.8613Z" fill="#747A74"/>
<path d="M62.8982 126.203V50.2412H126.351V136.583H72.0942L62.8982 126.203Z" fill="white"/>
<path d="M71.1746 71.4728V62.5083C71.1746 61.466 71.998 60.6211 73.0138 60.6211H81.75C82.7658 60.6211 83.5892 61.466 83.5892 62.5083V71.4728C83.5892 72.5151 82.7658 73.3601 81.75 73.3601H73.0138C71.998 73.3601 71.1746 72.5151 71.1746 71.4728Z" fill="#F06111"/>
<path d="M71.1746 96.9508V87.9864C71.1746 86.9441 71.998 86.0991 73.0138 86.0991H81.75C82.7658 86.0991 83.5892 86.9441 83.5892 87.9864V96.9508C83.5892 97.9931 82.7658 98.8381 81.75 98.8381H73.0138C71.998 98.8381 71.1746 97.9931 71.1746 96.9508Z" fill="#F06111"/>
<path d="M71.1746 121.485V112.521C71.1746 111.478 71.998 110.633 73.0138 110.633H81.75C82.7658 110.633 83.5892 111.478 83.5892 112.521V121.485C83.5892 122.527 82.7658 123.372 81.75 123.372H73.0138C71.998 123.372 71.1746 122.527 71.1746 121.485Z" fill="#F06111"/>
<path fill-rule="evenodd" clip-rule="evenodd" d="M88.647 63.4519C88.647 62.9308 89.0587 62.5083 89.5666 62.5083H113.936C114.444 62.5083 114.856 62.9308 114.856 63.4519C114.856 63.9731 114.444 64.3956 113.936 64.3956H89.5666C89.0587 64.3956 88.647 63.9731 88.647 63.4519Z" fill="#DBDBDB"/>
<path fill-rule="evenodd" clip-rule="evenodd" d="M88.647 88.93C88.647 88.4088 89.0587 87.9863 89.5666 87.9863H113.936C114.444 87.9863 114.856 88.4088 114.856 88.93C114.856 89.4511 114.444 89.8736 113.936 89.8736H89.5666C89.0587 89.8736 88.647 89.4511 88.647 88.93Z" fill="#DBDBDB"/>
<path fill-rule="evenodd" clip-rule="evenodd" d="M88.647 113.464C88.647 112.943 89.0587 112.521 89.5666 112.521H113.936C114.444 112.521 114.856 112.943 114.856 113.464C114.856 113.985 114.444 114.408 113.936 114.408H89.5666C89.0587 114.408 88.647 113.985 88.647 113.464Z" fill="#DBDBDB"/>
<path fill-rule="evenodd" clip-rule="evenodd" d="M88.647 68.1702C88.647 67.649 89.0587 67.2266 89.5666 67.2266H113.936C114.444 67.2266 114.856 67.649 114.856 68.1702C114.856 68.6913 114.444 69.1138 113.936 69.1138H89.5666C89.0587 69.1138 88.647 68.6913 88.647 68.1702Z" fill="#DBDBDB"/>
<path fill-rule="evenodd" clip-rule="evenodd" d="M88.647 93.648C88.647 93.1268 89.0587 92.7043 89.5666 92.7043H113.936C114.444 92.7043 114.856 93.1268 114.856 93.648C114.856 94.1691 114.444 94.5916 113.936 94.5916H89.5666C89.0587 94.5916 88.647 94.1691 88.647 93.648Z" fill="#DBDBDB"/>
<path fill-rule="evenodd" clip-rule="evenodd" d="M88.647 118.182C88.647 117.661 89.0587 117.239 89.5666 117.239H113.936C114.444 117.239 114.856 117.661 114.856 118.182C114.856 118.703 114.444 119.126 113.936 119.126H89.5666C89.0587 119.126 88.647 118.703 88.647 118.182Z" fill="#DBDBDB"/>
<g filter="url(#filter0_d_308_3475)">
<path d="M72.0942 136.583L62.8982 126.203H72.0942V136.583Z" fill="#EAEAEA"/>
</g>
<path d="M71.1746 50.2413V44.1077C71.1746 43.0654 71.998 42.2205 73.0138 42.2205H113.476C114.492 42.2205 115.316 43.0654 115.316 44.1077V50.2413C115.316 51.2836 114.492 52.1285 113.476 52.1285H73.0138C71.998 52.1285 71.1746 51.2836 71.1746 50.2413Z" fill="#747A74"/>
<path fill-rule="evenodd" clip-rule="evenodd" d="M138.661 136.863C141.415 136.399 143.796 135.305 146.354 134.27C146.854 134.068 147.097 133.489 146.901 132.976C146.705 132.463 146.139 132.212 145.639 132.413C143.214 133.394 140.958 134.453 138.342 134.894C137.813 134.983 137.455 135.497 137.544 136.04C137.63 136.584 138.132 136.952 138.661 136.863Z" fill="#F06111"/>
<path fill-rule="evenodd" clip-rule="evenodd" d="M136.069 144.34C141.652 146.948 148.219 148.832 154.328 149.481C154.862 149.537 155.339 149.139 155.392 148.591C155.445 148.044 155.057 147.553 154.524 147.496C148.617 146.868 142.265 145.046 136.869 142.523C136.38 142.295 135.805 142.518 135.585 143.018C135.365 143.519 135.58 144.112 136.069 144.34Z" fill="#F06111"/>
<path fill-rule="evenodd" clip-rule="evenodd" d="M132.372 147.245C133.377 151.433 136.129 154.995 139.125 157.887C139.518 158.264 140.132 158.244 140.497 157.844C140.864 157.443 140.843 156.811 140.453 156.433C137.723 153.799 135.172 150.585 134.256 146.771C134.128 146.236 133.601 145.909 133.082 146.039C132.563 146.169 132.244 146.711 132.372 147.245Z" fill="#F06111"/>
<defs>
<filter id="filter0_d_308_3475" x="62.8982" y="125.203" width="11.196" height="12.3799" filterUnits="userSpaceOnUse" color-interpolation-filters="sRGB">
<feFlood flood-opacity="0" result="BackgroundImageFix"/>
<feColorMatrix in="SourceAlpha" type="matrix" values="0 0 0 0 0 0 0 0 0 0 0 0 0 0 0 0 0 0 127 0" result="hardAlpha"/>
<feOffset dx="1"/>
<feGaussianBlur stdDeviation="0.5"/>
<feComposite in2="hardAlpha" operator="out"/>
<feColorMatrix type="matrix" values="0 0 0 0 0 0 0 0 0 0 0 0 0 0 0 0 0 0 0.25 0"/>
<feBlend mode="normal" in2="BackgroundImageFix" result="effect1_dropShadow_308_3475"/>
<feBlend mode="normal" in="SourceGraphic" in2="effect1_dropShadow_308_3475" result="shape"/>
</filter>
</defs>
</svg>
