<svg width="161" height="143" viewBox="0 0 161 143" fill="none" xmlns="http://www.w3.org/2000/svg">
<path d="M54.6434 55.4445L47.3707 40.5391L26.7646 60.604L54.6434 55.4445Z" fill="#3A53D7"/>
<path d="M106.159 54.2978L112.825 38.2458L131.613 61.1772L106.159 54.2978Z" fill="#3A53D7"/>
<path fill-rule="evenodd" clip-rule="evenodd" d="M64.946 68.0566L80.7036 105.996L94.0369 66.9101L106.764 53.7245L110.673 45.7146C116.682 33.4031 113.815 18.8447 103.524 9.4049C90.7047 -2.35374 70.3858 -2.6041 57.207 8.79347C46.027 18.4623 42.9693 34.005 49.7626 46.8126L54.0369 54.8711L64.946 68.0566ZM79.4915 54.9737C92.8802 54.9737 103.734 44.7069 103.734 32.0423C103.734 19.3776 92.8802 9.1109 79.4915 9.1109C66.1027 9.1109 55.249 19.3776 55.249 32.0423C55.249 44.7069 66.1027 54.9737 79.4915 54.9737Z" fill="#F06111"/>
<path d="M138.885 78.9492C138.885 93.1969 126.675 104.747 111.613 104.747C96.5503 104.747 84.3398 93.1969 84.3398 78.9492C84.3398 64.7014 96.5503 53.1514 111.613 53.1514C126.675 53.1514 138.885 64.7014 138.885 78.9492ZM91.1173 78.9492C91.1173 89.6563 100.293 98.3361 111.613 98.3361C122.932 98.3361 132.108 89.6563 132.108 78.9492C132.108 68.2421 122.932 59.5623 111.613 59.5623C100.293 59.5623 91.1173 68.2421 91.1173 78.9492Z" fill="#3A53D7"/>
<path fill-rule="evenodd" clip-rule="evenodd" d="M111.613 103.6C126.005 103.6 137.673 92.5637 137.673 78.9492C137.673 65.3347 126.005 54.2979 111.613 54.2979C97.2197 54.2979 85.552 65.3347 85.552 78.9492C85.552 92.5637 97.2197 103.6 111.613 103.6ZM111.613 99.4826C99.6239 99.4826 89.9052 90.2895 89.9052 78.9492C89.9052 67.6088 99.6239 58.4157 111.613 58.4157C123.601 58.4157 133.32 67.6088 133.32 78.9492C133.32 90.2895 123.601 99.4826 111.613 99.4826ZM111.613 104.747C126.675 104.747 138.885 93.1969 138.885 78.9492C138.885 64.7014 126.675 53.1514 111.613 53.1514C96.5503 53.1514 84.3398 64.7014 84.3398 78.9492C84.3398 93.1969 96.5503 104.747 111.613 104.747ZM111.613 98.3361C100.293 98.3361 91.1173 89.6563 91.1173 78.9492C91.1173 68.2421 100.293 59.5623 111.613 59.5623C122.932 59.5623 132.108 68.2421 132.108 78.9492C132.108 89.6563 122.932 98.3361 111.613 98.3361Z" fill="white"/>
<path d="M73.4312 78.9492C73.4312 93.1969 61.2208 104.747 46.1585 104.747C31.0962 104.747 18.8857 93.1969 18.8857 78.9492C18.8857 64.7014 31.0962 53.1514 46.1585 53.1514C61.2208 53.1514 73.4312 64.7014 73.4312 78.9492ZM25.6632 78.9492C25.6632 89.6563 34.8392 98.3361 46.1585 98.3361C57.4777 98.3361 66.6538 89.6563 66.6538 78.9492C66.6538 68.2421 57.4777 59.5623 46.1585 59.5623C34.8392 59.5623 25.6632 68.2421 25.6632 78.9492Z" fill="#3A53D7"/>
<path fill-rule="evenodd" clip-rule="evenodd" d="M46.1585 103.6C60.5513 103.6 72.2191 92.5637 72.2191 78.9492C72.2191 65.3347 60.5513 54.2979 46.1585 54.2979C31.7656 54.2979 20.0979 65.3347 20.0979 78.9492C20.0979 92.5637 31.7656 103.6 46.1585 103.6ZM46.1585 99.4826C34.1698 99.4826 24.451 90.2895 24.451 78.9492C24.451 67.6088 34.1698 58.4157 46.1585 58.4157C58.1471 58.4157 67.8659 67.6088 67.8659 78.9492C67.8659 90.2895 58.1471 99.4826 46.1585 99.4826ZM46.1585 104.747C61.2208 104.747 73.4312 93.1969 73.4312 78.9492C73.4312 64.7014 61.2208 53.1514 46.1585 53.1514C31.0962 53.1514 18.8857 64.7014 18.8857 78.9492C18.8857 93.1969 31.0962 104.747 46.1585 104.747ZM46.1585 98.3361C34.8392 98.3361 25.6632 89.6563 25.6632 78.9492C25.6632 68.2421 34.8392 59.5623 46.1585 59.5623C57.4777 59.5623 66.6538 68.2421 66.6538 78.9492C66.6538 89.6563 57.4777 98.3361 46.1585 98.3361Z" fill="white"/>
<path d="M55.2492 78.9491C55.2492 83.6984 51.1791 87.5484 46.1583 87.5484C41.1375 87.5484 37.0674 83.6984 37.0674 78.9491C37.0674 74.1999 41.1375 70.3499 46.1583 70.3499C51.1791 70.3499 55.2492 74.1999 55.2492 78.9491Z" fill="#313239"/>
<path d="M121.916 78.9491C121.916 83.6984 117.846 87.5484 112.825 87.5484C107.805 87.5484 103.734 83.6984 103.734 78.9491C103.734 74.1999 107.805 70.3499 112.825 70.3499C117.846 70.3499 121.916 74.1999 121.916 78.9491Z" fill="#313239"/>
<path d="M9.12 123.146C10.5164 123.146 11.6994 123.32 12.6691 123.669C13.6388 124.008 14.5358 124.499 15.36 125.141L13.3382 127.411C12.7661 126.953 12.1358 126.604 11.4473 126.366C10.7685 126.127 10.0412 126.008 9.26545 126.008C8.33455 126.008 7.47636 126.242 6.69091 126.71C5.91515 127.177 5.2897 127.93 4.81454 128.966C4.34909 129.993 4.11636 131.351 4.11636 133.039C4.11636 134.699 4.33939 136.043 4.78545 137.07C5.24121 138.097 5.85697 138.849 6.63273 139.326C7.41818 139.794 8.30545 140.028 9.29455 140.028C10.3418 140.028 11.2097 139.854 11.8982 139.505C12.5867 139.157 13.2073 138.776 13.76 138.363L15.6364 140.606C14.9285 141.266 14.0412 141.831 12.9745 142.298C11.9176 142.766 10.6327 143 9.12 143C7.36485 143 5.79879 142.619 4.42182 141.858C3.04485 141.097 1.96364 139.978 1.17818 138.501C0.392727 137.024 0 135.203 0 133.039C0 130.911 0.402424 129.113 1.20727 127.645C2.02182 126.168 3.11758 125.049 4.49455 124.288C5.88121 123.527 7.42303 123.146 9.12 123.146Z" fill="#313239"/>
<path d="M27.8723 138.749C27.8723 139.308 27.9595 139.716 28.1341 139.973C28.3086 140.221 28.5898 140.409 28.9777 140.537L28.1486 142.972C27.3244 142.89 26.6214 142.697 26.0395 142.395C25.4674 142.083 25.0262 141.62 24.7159 141.005C24.1341 141.675 23.3971 142.174 22.505 142.505C21.6226 142.835 20.6965 143 19.7268 143C18.1559 143 16.9098 142.578 15.9886 141.734C15.0674 140.89 14.6068 139.794 14.6068 138.446C14.6068 136.896 15.2468 135.703 16.5268 134.869C17.8165 134.025 19.6395 133.603 21.9959 133.603H24.1486V132.818C24.1486 131.956 23.8674 131.333 23.305 130.947C22.7426 130.553 21.9329 130.356 20.8759 130.356C20.3814 130.356 19.7608 130.42 19.0141 130.548C18.2771 130.668 17.5159 130.856 16.7305 131.112L15.8141 128.622C16.7935 128.273 17.7777 128.017 18.7668 127.852C19.7656 127.686 20.6723 127.604 21.4868 127.604C23.6492 127.604 25.2541 128.04 26.3014 128.911C27.3486 129.773 27.8723 130.998 27.8723 132.585V138.749ZM20.9777 140.372C21.5595 140.372 22.1462 140.216 22.7377 139.904C23.3389 139.592 23.8092 139.157 24.1486 138.597V135.763H22.6359C21.2105 135.763 20.1777 135.978 19.5377 136.41C18.9074 136.841 18.5923 137.451 18.5923 138.239C18.5923 138.918 18.7959 139.446 19.2032 139.822C19.6105 140.189 20.202 140.372 20.9777 140.372Z" fill="#313239"/>
<path d="M37.4464 122.197V138.35C37.4464 138.982 37.6403 139.432 38.0282 139.698C38.4258 139.964 38.9591 140.097 39.6282 140.097C40.0452 140.097 40.4476 140.056 40.8355 139.973C41.2233 139.881 41.5918 139.771 41.9409 139.643L42.8864 142.119C42.4015 142.349 41.81 142.551 41.1118 142.725C40.4233 142.908 39.6233 143 38.7118 143C37.0342 143 35.7639 142.546 34.9009 141.638C34.0379 140.73 33.6064 139.505 33.6064 137.964V124.77H28.9955V122.197H37.4464Z" fill="#313239"/>
<path d="M53.5804 121.811L57.4204 122.197V142.587H54.0168L53.7841 140.867C53.3089 141.509 52.7126 142.028 51.995 142.422C51.2774 142.807 50.4435 143 49.4932 143C48.1938 143 47.1174 142.679 46.2641 142.037C45.4204 141.395 44.7901 140.496 44.3732 139.34C43.9659 138.175 43.7623 136.822 43.7623 135.281C43.7623 133.795 44.0047 132.475 44.4895 131.319C44.9744 130.163 45.6726 129.255 46.5841 128.595C47.5053 127.934 48.5962 127.604 49.8568 127.604C50.6132 127.604 51.3017 127.728 51.9223 127.975C52.5429 128.223 53.0956 128.59 53.5804 129.076V121.811ZM50.8895 130.314C49.9198 130.314 49.1538 130.713 48.5914 131.511C48.0386 132.3 47.7623 133.561 47.7623 135.295C47.7623 136.515 47.8786 137.492 48.1114 138.226C48.3441 138.95 48.6738 139.473 49.1004 139.794C49.5271 140.115 50.0314 140.276 50.6132 140.276C51.2532 140.276 51.8156 140.097 52.3004 139.739C52.795 139.372 53.2217 138.918 53.5804 138.377V131.745C53.2217 131.296 52.8192 130.947 52.3732 130.7C51.9368 130.443 51.4423 130.314 50.8895 130.314Z" fill="#313239"/>
<path d="M71.4745 138.749C71.4745 139.308 71.5618 139.716 71.7364 139.973C71.9109 140.221 72.1921 140.409 72.58 140.537L71.7509 142.972C70.9267 142.89 70.2236 142.697 69.6418 142.395C69.0697 142.083 68.6285 141.62 68.3182 141.005C67.7364 141.675 66.9994 142.174 66.1073 142.505C65.2248 142.835 64.2988 143 63.3291 143C61.7582 143 60.5121 142.578 59.5909 141.734C58.6697 140.89 58.2091 139.794 58.2091 138.446C58.2091 136.896 58.8491 135.703 60.1291 134.869C61.4188 134.025 63.2418 133.603 65.5982 133.603H67.7509V132.818C67.7509 131.956 67.4697 131.333 66.9073 130.947C66.3448 130.553 65.5351 130.356 64.4782 130.356C63.9836 130.356 63.363 130.42 62.6164 130.548C61.8794 130.668 61.1182 130.856 60.3327 131.112L59.4164 128.622C60.3958 128.273 61.38 128.017 62.3691 127.852C63.3679 127.686 64.2745 127.604 65.0891 127.604C67.2515 127.604 68.8564 128.04 69.9036 128.911C70.9509 129.773 71.4745 130.998 71.4745 132.585V138.749ZM64.58 140.372C65.1618 140.372 65.7485 140.216 66.34 139.904C66.9412 139.592 67.4115 139.157 67.7509 138.597V135.763H66.2382C64.8127 135.763 63.78 135.978 63.14 136.41C62.5097 136.841 62.1945 137.451 62.1945 138.239C62.1945 138.918 62.3982 139.446 62.8055 139.822C63.2127 140.189 63.8042 140.372 64.58 140.372Z" fill="#313239"/>
<path d="M79.5795 140.317C80.4814 140.317 81.2038 140.17 81.7468 139.877C82.2995 139.574 82.5759 139.152 82.5759 138.611C82.5759 138.253 82.4838 137.951 82.2995 137.703C82.125 137.455 81.7759 137.226 81.2523 137.015C80.7286 136.795 79.9432 136.552 78.8959 136.286C77.9068 136.047 77.0389 135.754 76.2923 135.405C75.5553 135.047 74.9783 134.589 74.5614 134.029C74.1541 133.47 73.9504 132.763 73.9504 131.91C73.9504 131.057 74.2026 130.31 74.7068 129.668C75.2111 129.016 75.9383 128.512 76.8886 128.154C77.8486 127.787 79.0026 127.604 80.3504 127.604C81.6692 127.604 82.8232 127.769 83.8123 128.099C84.8014 128.42 85.6498 128.824 86.3577 129.31L84.7868 131.525C84.1662 131.149 83.4923 130.846 82.765 130.617C82.0474 130.379 81.2717 130.259 80.4377 130.259C79.5359 130.259 78.8765 130.383 78.4595 130.631C78.0523 130.878 77.8486 131.222 77.8486 131.663C77.8486 131.975 77.9505 132.241 78.1541 132.461C78.3674 132.672 78.7456 132.878 79.2886 133.08C79.8414 133.273 80.6268 133.506 81.645 133.782C82.6438 134.038 83.5117 134.341 84.2486 134.69C84.9953 135.038 85.5723 135.501 85.9795 136.079C86.3868 136.657 86.5905 137.414 86.5905 138.35C86.5905 139.404 86.2656 140.276 85.6159 140.964C84.9662 141.652 84.108 142.165 83.0414 142.505C81.9844 142.835 80.8353 143 79.5941 143C78.1395 143 76.8692 142.803 75.7832 142.408C74.6971 142.014 73.7759 141.505 73.0195 140.881L75.0123 138.762C75.6135 139.212 76.2971 139.583 77.0632 139.877C77.8389 140.17 78.6777 140.317 79.5795 140.317Z" fill="#313239"/>
<path d="M94.71 139.354L99.0736 123.559H103.146L97.0082 142.587H92.2664L86.1573 123.559H90.39L94.71 139.354Z" fill="#313239"/>
<path d="M111.644 128.017V140.014H115.702V142.587H103.295V140.014H107.804V130.59H103.44V128.017H111.644ZM109.157 120.669C109.865 120.669 110.437 120.876 110.873 121.289C111.319 121.701 111.542 122.215 111.542 122.83C111.542 123.444 111.319 123.962 110.873 124.384C110.437 124.797 109.865 125.003 109.157 125.003C108.449 125.003 107.872 124.797 107.426 124.384C106.98 123.962 106.757 123.444 106.757 122.83C106.757 122.215 106.98 121.701 107.426 121.289C107.872 120.876 108.449 120.669 109.157 120.669Z" fill="#313239"/>
<path d="M123.182 140.317C124.084 140.317 124.806 140.17 125.349 139.877C125.902 139.574 126.178 139.152 126.178 138.611C126.178 138.253 126.086 137.951 125.902 137.703C125.727 137.455 125.378 137.226 124.855 137.015C124.331 136.795 123.545 136.552 122.498 136.286C121.509 136.047 120.641 135.754 119.895 135.405C119.158 135.047 118.581 134.589 118.164 134.029C117.756 133.47 117.553 132.763 117.553 131.91C117.553 131.057 117.805 130.31 118.309 129.668C118.813 129.016 119.541 128.512 120.491 128.154C121.451 127.787 122.605 127.604 123.953 127.604C125.272 127.604 126.425 127.769 127.415 128.099C128.404 128.42 129.252 128.824 129.96 129.31L128.389 131.525C127.768 131.149 127.095 130.846 126.367 130.617C125.65 130.379 124.874 130.259 124.04 130.259C123.138 130.259 122.479 130.383 122.062 130.631C121.655 130.878 121.451 131.222 121.451 131.663C121.451 131.975 121.553 132.241 121.756 132.461C121.97 132.672 122.348 132.878 122.891 133.08C123.444 133.273 124.229 133.506 125.247 133.782C126.246 134.038 127.114 134.341 127.851 134.69C128.598 135.038 129.175 135.501 129.582 136.079C129.989 136.657 130.193 137.414 130.193 138.35C130.193 139.404 129.868 140.276 129.218 140.964C128.568 141.652 127.71 142.165 126.644 142.505C125.587 142.835 124.438 143 123.196 143C121.742 143 120.472 142.803 119.385 142.408C118.299 142.014 117.378 141.505 116.622 140.881L118.615 138.762C119.216 139.212 119.899 139.583 120.665 139.877C121.441 140.17 122.28 140.317 123.182 140.317Z" fill="#313239"/>
<path d="M138.254 127.604C139.786 127.604 141.086 127.92 142.152 128.553C143.219 129.186 144.029 130.08 144.581 131.236C145.144 132.383 145.425 133.727 145.425 135.268C145.425 136.845 145.144 138.212 144.581 139.368C144.019 140.523 143.204 141.418 142.138 142.051C141.071 142.684 139.772 143 138.24 143C136.717 143 135.418 142.693 134.341 142.078C133.275 141.454 132.46 140.569 131.898 139.423C131.335 138.267 131.054 136.891 131.054 135.295C131.054 133.772 131.335 132.433 131.898 131.277C132.46 130.122 133.28 129.223 134.356 128.581C135.432 127.93 136.732 127.604 138.254 127.604ZM138.254 130.342C137.178 130.342 136.373 130.741 135.84 131.539C135.316 132.337 135.054 133.589 135.054 135.295C135.054 137.02 135.316 138.281 135.84 139.079C136.363 139.868 137.163 140.262 138.24 140.262C139.316 140.262 140.116 139.868 140.64 139.079C141.163 138.281 141.425 137.01 141.425 135.268C141.425 133.571 141.163 132.328 140.64 131.539C140.116 130.741 139.321 130.342 138.254 130.342Z" fill="#313239"/>
<path d="M146.534 142.587V140.069H148.701V130.521H146.534V128.017H151.625L152.337 131.36C152.9 130.122 153.608 129.191 154.461 128.567C155.314 127.934 156.386 127.618 157.675 127.618C158.17 127.618 158.606 127.654 158.985 127.728C159.372 127.801 159.741 127.897 160.09 128.017L158.941 131.071C158.64 130.998 158.354 130.943 158.083 130.906C157.811 130.86 157.506 130.837 157.166 130.837C156.1 130.837 155.169 131.232 154.374 132.02C153.588 132.8 152.977 133.86 152.541 135.199V140.069H155.61V142.587H146.534ZM156.846 133.699V129.833L157.37 128.017H160.09L159.406 133.699H156.846Z" fill="#313239"/>
</svg>
