<svg width="137" height="40" viewBox="0 0 137 40" fill="none" xmlns="http://www.w3.org/2000/svg">
<path d="M12.8141 20.8488L10.2078 15.2019L2.82344 22.8035L12.8141 20.8488Z" fill="#3A53D7"/>
<path d="M31.275 20.4143L33.664 14.333L40.3969 23.0205L31.275 20.4143Z" fill="#3A53D7"/>
<path fill-rule="evenodd" clip-rule="evenodd" d="M16.5063 25.6268L22.1531 40L26.9312 25.1924L31.4922 20.1971L32.8931 17.1625C35.0463 12.4984 34.0191 6.98295 30.3311 3.40671C25.7371 -1.04802 18.4556 -1.14287 13.7329 3.17507C9.72647 6.8381 8.63071 12.7264 11.0651 17.5785L12.5969 20.6315L16.5063 25.6268ZM21.7187 20.6703C26.5167 20.6703 30.4062 16.7808 30.4062 11.9828C30.4062 7.18485 26.5167 3.29533 21.7187 3.29533C16.9208 3.29533 13.0313 7.18485 13.0313 11.9828C13.0313 16.7808 16.9208 20.6703 21.7187 20.6703Z" fill="#F06111"/>
<path d="M43.0031 29.7534C43.0031 35.1511 38.6274 39.5268 33.2297 39.5268C27.832 39.5268 23.4562 35.1511 23.4562 29.7534C23.4562 24.3557 27.832 19.98 33.2297 19.98C38.6274 19.98 43.0031 24.3557 43.0031 29.7534ZM25.885 29.7534C25.885 33.8098 29.1733 37.0981 33.2297 37.0981C37.286 37.0981 40.5744 33.8098 40.5744 29.7534C40.5744 25.6971 37.286 22.4087 33.2297 22.4087C29.1733 22.4087 25.885 25.6971 25.885 29.7534Z" fill="#3A53D7"/>
<path fill-rule="evenodd" clip-rule="evenodd" d="M33.2297 39.0925C38.3875 39.0925 42.5687 34.9112 42.5687 29.7534C42.5687 24.5956 38.3875 20.4144 33.2297 20.4144C28.0719 20.4144 23.8906 24.5956 23.8906 29.7534C23.8906 34.9112 28.0719 39.0925 33.2297 39.0925ZM33.2297 37.5325C28.9334 37.5325 25.4506 34.0497 25.4506 29.7534C25.4506 25.4572 28.9334 21.9744 33.2297 21.9744C37.5259 21.9744 41.0087 25.4572 41.0087 29.7534C41.0087 34.0497 37.5259 37.5325 33.2297 37.5325ZM33.2297 39.5268C38.6274 39.5268 43.0031 35.1511 43.0031 29.7534C43.0031 24.3557 38.6274 19.98 33.2297 19.98C27.832 19.98 23.4562 24.3557 23.4562 29.7534C23.4562 35.1511 27.832 39.5268 33.2297 39.5268ZM33.2297 37.0981C29.1733 37.0981 25.885 33.8098 25.885 29.7534C25.885 25.6971 29.1733 22.4087 33.2297 22.4087C37.286 22.4087 40.5744 25.6971 40.5744 29.7534C40.5744 33.8098 37.286 37.0981 33.2297 37.0981Z" fill="white"/>
<path d="M19.5469 29.7534C19.5469 35.1511 15.1712 39.5268 9.77343 39.5268C4.37571 39.5268 0 35.1511 0 29.7534C0 24.3557 4.37571 19.98 9.77343 19.98C15.1712 19.98 19.5469 24.3557 19.5469 29.7534ZM2.42875 29.7534C2.42875 33.8098 5.71708 37.0981 9.77343 37.0981C13.8298 37.0981 17.1181 33.8098 17.1181 29.7534C17.1181 25.6971 13.8298 22.4087 9.77343 22.4087C5.71708 22.4087 2.42875 25.6971 2.42875 29.7534Z" fill="#3A53D7"/>
<path fill-rule="evenodd" clip-rule="evenodd" d="M9.77343 39.0925C14.9313 39.0925 19.1125 34.9112 19.1125 29.7534C19.1125 24.5956 14.9313 20.4144 9.77343 20.4144C4.61561 20.4144 0.434375 24.5956 0.434375 29.7534C0.434375 34.9112 4.61561 39.0925 9.77343 39.0925ZM9.77343 37.5325C5.47718 37.5325 1.99438 34.0497 1.99438 29.7534C1.99438 25.4572 5.47718 21.9744 9.77343 21.9744C14.0697 21.9744 17.5525 25.4572 17.5525 29.7534C17.5525 34.0497 14.0697 37.5325 9.77343 37.5325ZM9.77343 39.5268C15.1712 39.5268 19.5469 35.1511 19.5469 29.7534C19.5469 24.3557 15.1712 19.98 9.77343 19.98C4.37571 19.98 0 24.3557 0 29.7534C0 35.1511 4.37571 39.5268 9.77343 39.5268ZM9.77343 37.0981C5.71708 37.0981 2.42875 33.8098 2.42875 29.7534C2.42875 25.6971 5.71708 22.4087 9.77343 22.4087C13.8298 22.4087 17.1181 25.6971 17.1181 29.7534C17.1181 33.8098 13.8298 37.0981 9.77343 37.0981Z" fill="white"/>
<path d="M13.0312 29.7534C13.0312 31.5527 11.5727 33.0112 9.77344 33.0112C7.9742 33.0112 6.51562 31.5527 6.51562 29.7534C6.51562 27.9542 7.9742 26.4956 9.77344 26.4956C11.5727 26.4956 13.0312 27.9542 13.0312 29.7534Z" fill="#313239"/>
<path d="M36.9219 29.7534C36.9219 31.5527 35.4633 33.0112 33.664 33.0112C31.8648 33.0112 30.4062 31.5527 30.4062 29.7534C30.4062 27.9542 31.8648 26.4956 33.664 26.4956C35.4633 26.4956 36.9219 27.9542 36.9219 29.7534Z" fill="#313239"/>
<path d="M55.346 14.3629C56.0966 14.3629 56.7325 14.462 57.2538 14.6601C57.775 14.8529 58.2572 15.1318 58.7003 15.4967L57.6135 16.7868C57.3059 16.5261 56.9671 16.3281 56.597 16.1925C56.2321 16.057 55.8412 15.9892 55.4242 15.9892C54.9238 15.9892 54.4625 16.1222 54.0403 16.388C53.6233 16.6538 53.2871 17.0813 53.0317 17.6703C52.7815 18.2541 52.6564 19.0255 52.6564 19.9846C52.6564 20.9281 52.7763 21.6917 53.016 22.2755C53.261 22.8593 53.592 23.2867 54.009 23.5578C54.4312 23.8236 54.9082 23.9565 55.4398 23.9565C56.0028 23.9565 56.4693 23.8575 56.8394 23.6594C57.2095 23.4614 57.5431 23.245 57.8402 23.0105L58.8488 24.2849C58.4683 24.6602 57.9914 24.9808 57.418 25.2466C56.8498 25.5125 56.1592 25.6454 55.346 25.6454C54.4026 25.6454 53.5607 25.4291 52.8206 24.9964C52.0804 24.5638 51.4992 23.9279 51.077 23.0887C50.6548 22.2494 50.4437 21.2148 50.4437 19.9846C50.4437 18.7753 50.66 17.7537 51.0926 16.9197C51.5305 16.0805 52.1195 15.4445 52.8597 15.0119C53.605 14.5793 54.4338 14.3629 55.346 14.3629Z" fill="#313239"/>
<path d="M65.4261 23.2294C65.4261 23.5474 65.473 23.7793 65.5668 23.9253C65.6607 24.066 65.8118 24.1729 66.0203 24.2458L65.5746 25.6298C65.1316 25.5828 64.7537 25.4734 64.4409 25.3014C64.1334 25.1241 63.8962 24.8609 63.7294 24.5117C63.4167 24.8922 63.0205 25.1763 62.541 25.3639C62.0666 25.5516 61.5688 25.6454 61.0476 25.6454C60.2032 25.6454 59.5334 25.4056 59.0382 24.9261C58.543 24.4465 58.2954 23.8236 58.2954 23.0574C58.2954 22.1765 58.6394 21.4989 59.3275 21.0245C60.0207 20.545 61.0007 20.3052 62.2673 20.3052H63.4245V19.8595C63.4245 19.3695 63.2733 19.0151 62.971 18.7962C62.6687 18.572 62.2334 18.46 61.6653 18.46C61.3994 18.46 61.0658 18.4965 60.6645 18.5694C60.2683 18.6372 59.8591 18.744 59.4369 18.89L58.9444 17.4748C59.4708 17.2767 59.9999 17.1308 60.5316 17.037C61.0684 16.9431 61.5558 16.8962 61.9937 16.8962C63.156 16.8962 64.0187 17.1438 64.5817 17.639C65.1446 18.129 65.4261 18.8248 65.4261 19.7266V23.2294ZM61.72 24.152C62.0328 24.152 62.3481 24.0634 62.6661 23.8862C62.9892 23.709 63.2421 23.4614 63.4245 23.1434V21.5327H62.6113C61.8451 21.5327 61.29 21.6552 60.946 21.9002C60.6071 22.1452 60.4377 22.4918 60.4377 22.9401C60.4377 23.3258 60.5472 23.6255 60.7661 23.8393C60.985 24.0478 61.303 24.152 61.72 24.152Z" fill="#313239"/>
<path d="M70.5725 13.8234V23.0027C70.5725 23.3623 70.6768 23.6177 70.8853 23.7689C71.099 23.9201 71.3857 23.9956 71.7453 23.9956C71.9695 23.9956 72.1858 23.9722 72.3943 23.9253C72.6028 23.8731 72.8009 23.8106 72.9885 23.7376L73.4967 25.145C73.2361 25.2753 72.9182 25.39 72.5429 25.489C72.1728 25.5933 71.7427 25.6454 71.2528 25.6454C70.351 25.6454 69.6682 25.3874 69.2043 24.8713C68.7403 24.3553 68.5084 23.6594 68.5084 22.7837V15.2856H66.0298V13.8234H70.5725Z" fill="#313239"/>
<path d="M79.2452 13.6045L81.3094 13.8234V25.4108H79.4798L79.3547 24.4335C79.0993 24.7984 78.7787 25.0929 78.393 25.317C78.0073 25.5359 77.559 25.6454 77.0482 25.6454C76.3497 25.6454 75.7711 25.463 75.3124 25.0981C74.8589 24.7332 74.5201 24.2224 74.296 23.5656C74.077 22.9036 73.9676 22.1348 73.9676 21.2591C73.9676 20.4147 74.0979 19.6641 74.3585 19.0073C74.6191 18.3505 74.9944 17.8345 75.4844 17.4592C75.9796 17.0839 76.566 16.8962 77.2436 16.8962C77.6502 16.8962 78.0203 16.9666 78.3539 17.1073C78.6875 17.2481 78.9846 17.4566 79.2452 17.7328V13.6045ZM77.7988 18.4365C77.2775 18.4365 76.8657 18.6633 76.5634 19.1167C76.2663 19.565 76.1177 20.2817 76.1177 21.2669C76.1177 21.9602 76.1803 22.5153 76.3054 22.9323C76.4305 23.3441 76.6077 23.6412 76.8371 23.8236C77.0664 24.0061 77.3375 24.0973 77.6502 24.0973C77.9942 24.0973 78.2966 23.9956 78.5572 23.7923C78.823 23.5838 79.0524 23.3258 79.2452 23.0183V19.2497C79.0524 18.9942 78.8361 18.7962 78.5963 18.6554C78.3617 18.5095 78.0959 18.4365 77.7988 18.4365Z" fill="#313239"/>
<path d="M88.864 23.2294C88.864 23.5474 88.9109 23.7793 89.0047 23.9253C89.0986 24.066 89.2497 24.1729 89.4582 24.2458L89.0126 25.6298C88.5695 25.5828 88.1916 25.4734 87.8788 25.3014C87.5713 25.1241 87.3341 24.8609 87.1673 24.5117C86.8546 24.8922 86.4584 25.1763 85.9789 25.3639C85.5046 25.5516 85.0068 25.6454 84.4855 25.6454C83.6411 25.6454 82.9713 25.4056 82.4761 24.9261C81.9809 24.4465 81.7333 23.8236 81.7333 23.0574C81.7333 22.1765 82.0773 21.4989 82.7654 21.0245C83.4586 20.545 84.4386 20.3052 85.7052 20.3052H86.8624V19.8595C86.8624 19.3695 86.7112 19.0151 86.4089 18.7962C86.1066 18.572 85.6713 18.46 85.1032 18.46C84.8373 18.46 84.5037 18.4965 84.1024 18.5694C83.7062 18.6372 83.2971 18.744 82.8748 18.89L82.3823 17.4748C82.9087 17.2767 83.4378 17.1308 83.9695 17.037C84.5064 16.9431 84.9937 16.8962 85.4316 16.8962C86.594 16.8962 87.4566 17.1438 88.0196 17.639C88.5825 18.129 88.864 18.8248 88.864 19.7266V23.2294ZM85.1579 24.152C85.4707 24.152 85.786 24.0634 86.104 23.8862C86.4272 23.709 86.68 23.4614 86.8624 23.1434V21.5327H86.0493C85.283 21.5327 84.7279 21.6552 84.3839 21.9002C84.0451 22.1452 83.8756 22.4918 83.8756 22.9401C83.8756 23.3258 83.9851 23.6255 84.204 23.8393C84.423 24.0478 84.7409 24.152 85.1579 24.152Z" fill="#313239"/>
<path d="M93.2208 24.1207C93.7055 24.1207 94.0938 24.0373 94.3857 23.8705C94.6829 23.6985 94.8314 23.4587 94.8314 23.1512C94.8314 22.9479 94.7819 22.7759 94.6829 22.6352C94.589 22.4944 94.4014 22.3641 94.1199 22.2442C93.8384 22.1191 93.4162 21.981 92.8533 21.8298C92.3216 21.6943 91.8551 21.5275 91.4537 21.3294C91.0576 21.1262 90.7474 20.8655 90.5233 20.5476C90.3044 20.2296 90.1949 19.8282 90.1949 19.3435C90.1949 18.8587 90.3304 18.4339 90.6015 18.069C90.8725 17.6989 91.2635 17.4123 91.7743 17.209C92.2903 17.0005 92.9106 16.8962 93.6351 16.8962C94.344 16.8962 94.9643 16.99 95.496 17.1777C96.0277 17.3601 96.4838 17.5895 96.8643 17.8657L96.0199 19.1246C95.6863 18.9108 95.324 18.7388 94.9331 18.6085C94.5473 18.473 94.1303 18.4052 93.6821 18.4052C93.1973 18.4052 92.8428 18.4756 92.6187 18.6163C92.3998 18.7571 92.2903 18.9525 92.2903 19.2027C92.2903 19.38 92.3451 19.5311 92.4545 19.6562C92.5692 19.7761 92.7725 19.8934 93.0644 20.0081C93.3615 20.1175 93.7837 20.2505 94.331 20.4068C94.8679 20.5528 95.3344 20.7248 95.7306 20.9229C96.1319 21.1209 96.4421 21.3842 96.661 21.7126C96.8799 22.0409 96.9894 22.471 96.9894 23.0027C96.9894 23.6021 96.8148 24.0973 96.4655 24.4882C96.1163 24.8792 95.655 25.1711 95.0816 25.3639C94.5135 25.5516 93.8958 25.6454 93.2286 25.6454C92.4467 25.6454 91.7639 25.5333 91.1801 25.3092C90.5963 25.085 90.1011 24.7958 89.6945 24.4413L90.7657 23.2372C91.0888 23.4926 91.4563 23.7037 91.8681 23.8705C92.2851 24.0373 92.736 24.1207 93.2208 24.1207Z" fill="#313239"/>
<path d="M101.354 23.5734L103.7 14.5975H105.889L102.589 25.4108H100.04L96.7565 14.5975H99.0318L101.354 23.5734Z" fill="#313239"/>
<path d="M110.457 17.1308V23.9487H112.638V25.4108H105.969V23.9487H108.393V18.5929H106.047V17.1308H110.457ZM109.12 12.9556C109.5 12.9556 109.808 13.0728 110.042 13.3074C110.282 13.542 110.402 13.8339 110.402 14.1831C110.402 14.5323 110.282 14.8269 110.042 15.0666C109.808 15.3012 109.5 15.4185 109.12 15.4185C108.739 15.4185 108.429 15.3012 108.189 15.0666C107.949 14.8269 107.83 14.5323 107.83 14.1831C107.83 13.8339 107.949 13.542 108.189 13.3074C108.429 13.0728 108.739 12.9556 109.12 12.9556Z" fill="#313239"/>
<path d="M116.659 24.1207C117.143 24.1207 117.532 24.0373 117.824 23.8705C118.121 23.6985 118.269 23.4587 118.269 23.1512C118.269 22.9479 118.22 22.7759 118.121 22.6352C118.027 22.4944 117.839 22.3641 117.558 22.2442C117.276 22.1191 116.854 21.981 116.291 21.8298C115.76 21.6943 115.293 21.5275 114.892 21.3294C114.495 21.1262 114.185 20.8655 113.961 20.5476C113.742 20.2296 113.633 19.8282 113.633 19.3435C113.633 18.8587 113.768 18.4339 114.039 18.069C114.31 17.6989 114.701 17.4123 115.212 17.209C115.728 17.0005 116.349 16.8962 117.073 16.8962C117.782 16.8962 118.402 16.99 118.934 17.1777C119.466 17.3601 119.922 17.5895 120.302 17.8657L119.458 19.1246C119.124 18.9108 118.762 18.7388 118.371 18.6085C117.985 18.473 117.568 18.4052 117.12 18.4052C116.635 18.4052 116.281 18.4756 116.057 18.6163C115.838 18.7571 115.728 18.9525 115.728 19.2027C115.728 19.38 115.783 19.5311 115.892 19.6562C116.007 19.7761 116.21 19.8934 116.502 20.0081C116.799 20.1175 117.222 20.2505 117.769 20.4068C118.306 20.5528 118.772 20.7248 119.168 20.9229C119.57 21.1209 119.88 21.3842 120.099 21.7126C120.318 22.0409 120.427 22.471 120.427 23.0027C120.427 23.6021 120.253 24.0973 119.903 24.4882C119.554 24.8792 119.093 25.1711 118.52 25.3639C117.951 25.5516 117.334 25.6454 116.666 25.6454C115.885 25.6454 115.202 25.5333 114.618 25.3092C114.034 25.085 113.539 24.7958 113.132 24.4413L114.204 23.2372C114.527 23.4926 114.894 23.7037 115.306 23.8705C115.723 24.0373 116.174 24.1207 116.659 24.1207Z" fill="#313239"/>
<path d="M124.761 16.8962C125.584 16.8962 126.283 17.076 126.856 17.4357C127.429 17.7954 127.865 18.3036 128.162 18.9604C128.464 19.6119 128.615 20.3756 128.615 21.2513C128.615 22.1478 128.464 22.9245 128.162 23.5812C127.859 24.238 127.422 24.7462 126.848 25.1059C126.275 25.4656 125.576 25.6454 124.753 25.6454C123.934 25.6454 123.236 25.4708 122.657 25.1215C122.084 24.7671 121.646 24.2641 121.344 23.6125C121.041 22.9557 120.89 22.1739 120.89 21.2669C120.89 20.4016 121.041 19.6406 121.344 18.9838C121.646 18.327 122.087 17.8162 122.665 17.4513C123.244 17.0813 123.942 16.8962 124.761 16.8962ZM124.761 18.4521C124.182 18.4521 123.749 18.6789 123.463 19.1324C123.181 19.5859 123.04 20.2974 123.04 21.2669C123.04 22.2468 123.181 22.9636 123.463 23.4171C123.744 23.8653 124.174 24.0895 124.753 24.0895C125.331 24.0895 125.761 23.8653 126.043 23.4171C126.324 22.9636 126.465 22.2416 126.465 21.2513C126.465 20.2869 126.324 19.5807 126.043 19.1324C125.761 18.6789 125.334 18.4521 124.761 18.4521Z" fill="#313239"/>
<path d="M129.211 25.4108V23.98H130.376V18.5538H129.211V17.1308H131.948L132.331 19.0307C132.633 18.327 133.014 17.798 133.472 17.4435C133.931 17.0839 134.507 16.904 135.2 16.904C135.466 16.904 135.701 16.9249 135.904 16.9666C136.113 17.0083 136.311 17.063 136.498 17.1308L135.881 18.8665C135.719 18.8248 135.565 18.7936 135.419 18.7727C135.273 18.7467 135.109 18.7336 134.927 18.7336C134.353 18.7336 133.853 18.9578 133.425 19.406C133.003 19.8491 132.675 20.4511 132.44 21.2122V23.98H134.09V25.4108H129.211ZM134.755 20.3599V18.1629L135.036 17.1308H136.498L136.131 20.3599H134.755Z" fill="#313239"/>
</svg>
