<svg width="24" height="24" viewBox="0 0 24 24" fill="none" xmlns="http://www.w3.org/2000/svg">
<path fill-rule="evenodd" clip-rule="evenodd" d="M4 6C4 5.58579 4.32561 5.25 4.72727 5.25H19.2727C19.6744 5.25 20 5.58579 20 6C20 6.41421 19.6744 6.75 19.2727 6.75H4.72727C4.32561 6.75 4 6.41421 4 6Z" fill="#272927"/>
<path fill-rule="evenodd" clip-rule="evenodd" d="M4 12C4 11.5858 4.3198 11.25 4.71429 11.25H13.2857C13.6802 11.25 14 11.5858 14 12C14 12.4142 13.6802 12.75 13.2857 12.75H4.71429C4.3198 12.75 4 12.4142 4 12Z" fill="#272927"/>
<path fill-rule="evenodd" clip-rule="evenodd" d="M4 18C4 17.5858 4.26863 17.25 4.6 17.25H9.4C9.73137 17.25 10 17.5858 10 18C10 18.4142 9.73137 18.75 9.4 18.75H4.6C4.26863 18.75 4 18.4142 4 18Z" fill="#272927"/>
</svg>
