<svg width="80" height="81" viewBox="0 0 80 81" fill="none" xmlns="http://www.w3.org/2000/svg">
<path fill-rule="evenodd" clip-rule="evenodd" d="M39.9997 10.4999C34.4768 10.4999 29.9997 14.9771 29.9997 20.4999C29.9997 26.0228 34.4768 30.4999 39.9997 30.4999C45.5225 30.4999 49.9997 26.0228 49.9997 20.4999C49.9997 14.9771 45.5225 10.4999 39.9997 10.4999ZM23.333 20.4999C23.333 11.2952 30.7949 3.83325 39.9997 3.83325C49.2044 3.83325 56.6663 11.2952 56.6663 20.4999C56.6663 29.7047 49.2044 37.1666 39.9997 37.1666C30.7949 37.1666 23.333 29.7047 23.333 20.4999Z" fill="#292827"/>
<path fill-rule="evenodd" clip-rule="evenodd" d="M6.66699 73.8333C6.66699 55.4239 21.5909 40.5 40.0003 40.5C58.4098 40.5 73.3337 55.4239 73.3337 73.8333C73.3337 75.6743 71.8413 77.1667 70.0003 77.1667C68.1594 77.1667 66.667 75.6743 66.667 73.8333C66.667 59.1058 54.7279 47.1667 40.0003 47.1667C25.2728 47.1667 13.3337 59.1058 13.3337 73.8333C13.3337 75.6743 11.8413 77.1667 10.0003 77.1667C8.15938 77.1667 6.66699 75.6743 6.66699 73.8333Z" fill="#292827"/>
</svg>
