<svg width="180" height="180" viewBox="0 0 180 180" fill="none" xmlns="http://www.w3.org/2000/svg">
<path d="M90.3612 145.647C123.146 145.647 149.722 118.981 149.722 86.0862C149.722 53.1916 123.146 26.5251 90.3612 26.5251C57.5769 26.5251 31 53.1916 31 86.0862C31 118.981 57.5769 145.647 90.3612 145.647Z" fill="#EDEDED"/>
<path fill-rule="evenodd" clip-rule="evenodd" d="M125.58 78.2227C128.078 77.8128 130.239 76.8447 132.559 75.9303C133.013 75.7517 133.234 75.2397 133.056 74.7863C132.877 74.3326 132.364 74.1101 131.911 74.2884C129.71 75.1556 127.664 76.0921 125.291 76.4819C124.811 76.5606 124.485 77.0152 124.566 77.4951C124.644 77.9759 125.1 78.3017 125.58 78.2227Z" fill="#F06111"/>
<path fill-rule="evenodd" clip-rule="evenodd" d="M123.228 84.8331C128.293 87.1395 134.251 88.8049 139.794 89.3791C140.278 89.4289 140.711 89.0762 140.759 88.5922C140.807 88.1082 140.455 87.6738 139.971 87.624C134.612 87.0686 128.849 85.458 123.954 83.2269C123.51 83.0257 122.988 83.2221 122.788 83.665C122.589 84.1079 122.784 84.6319 123.228 84.8331Z" fill="#F06111"/>
<path fill-rule="evenodd" clip-rule="evenodd" d="M119.873 87.4022C120.785 91.1044 123.282 94.2538 126.001 96.8112C126.357 97.1442 126.914 97.127 127.245 96.7734C127.578 96.4184 127.559 95.8597 127.205 95.5256C124.728 93.197 122.414 90.3548 121.583 86.983C121.466 86.5099 120.988 86.2202 120.518 86.3356C120.047 86.4507 119.757 86.9293 119.873 87.4022Z" fill="#F06111"/>
<path d="M60.3395 67.8248C60.5452 69.4796 62.522 74.4441 67.6395 74.2184C73.5188 73.324 75.2991 71.8166 76.52 67.8248C77.4266 61.8154 78.7194 57.8614 81.683 55.619C86.8024 51.7452 94.5431 52.6828 99.3455 56.9432C105.08 62.0303 103.744 73.0239 97.2204 77.0492C96.5251 77.4782 95.7498 77.91 94.8831 78.3555C91.7178 79.8783 89.0882 80.9882 85.7768 85.1253C84.4091 86.834 83.6325 88.1838 83.0753 89.6077C81.7805 92.9172 81.4079 96.5671 81.8548 100.093C81.9564 100.894 82.0922 101.615 82.2625 102.263C84.1726 109.534 95.7364 109.053 97.7981 101.823C98.7297 98.5564 100.673 94.0736 103.643 92.4249C106.769 90.69 109.295 88.513 112.719 84.8996C117.408 78.9257 118.874 75.1835 119.417 67.8248C119.417 54.5862 112.286 39.1436 90.8944 37.1353C69.822 38.0379 58.6838 54.511 60.3395 67.8248Z" fill="#F06111"/>
<path d="M94.4603 130.706C91.676 132.893 87.7731 132.98 84.8859 130.93C80.6457 127.92 80.3428 121.714 84.2902 118.329C87.4009 115.661 92.0369 115.789 95.0093 118.61C98.5458 121.966 98.2943 127.694 94.4603 130.706Z" fill="#F06111"/>
<path fill-rule="evenodd" clip-rule="evenodd" d="M116.234 39.4459C119.933 41.4741 122.524 44.4223 123.987 48.3824C124.16 48.8492 124.681 49.0909 125.15 48.9186C125.619 48.7498 125.86 48.231 125.688 47.7641C124.068 43.3813 121.202 40.1133 117.106 37.8675C116.668 37.6259 116.116 37.7872 115.875 38.2212C115.634 38.6587 115.795 39.2078 116.234 39.4459Z" fill="#F06111"/>
<path fill-rule="evenodd" clip-rule="evenodd" d="M126.395 16.4747C126.003 15.959 125.564 15.4771 125.079 15.0423C124.863 14.8485 124.393 14.4877 123.952 14.3496C123.482 14.2009 123.042 14.2728 122.737 14.6418C122.331 15.1322 122.262 15.5805 122.357 15.9593C122.448 16.3239 122.713 16.6523 123.109 16.9106C123.866 17.4038 125.138 17.6387 125.894 17.6372C126.249 18.1733 126.553 18.7421 126.803 19.3344C128.669 23.7463 126.424 29.1081 121.409 32.5016C119.653 33.6891 116.509 33.748 113.206 33.4074C108.064 32.8777 102.541 31.2961 100.911 30.8844C100.508 30.7837 100.26 30.768 100.207 30.7783C99.9487 30.8246 99.8484 30.9855 99.798 31.1023C99.7269 31.272 99.7293 31.4204 99.7633 31.5472C99.8103 31.7189 99.9252 31.877 100.133 31.985C100.248 32.0437 100.415 32.0899 100.597 32.126C100.724 32.1498 100.866 32.1551 100.951 32.2003C101.49 32.4927 102.008 32.8158 102.532 33.1355C104.292 34.2054 105.89 35.4381 107.466 36.7627C112.472 40.9714 117.82 45.1546 121.058 50.9475C121.203 51.2073 121.533 51.3029 121.795 51.1581C122.056 51.0153 122.15 50.6874 122.005 50.4254C118.703 44.5168 113.269 40.2327 108.164 35.9402C106.824 34.8137 105.467 33.7518 104.013 32.7964C106.808 33.4833 110.702 34.3264 114.256 34.5818C117.417 34.8091 120.313 34.547 122.02 33.3928C127.514 29.6754 129.846 23.7502 127.802 18.9188C127.583 18.4019 127.328 17.8991 127.036 17.4191C131.484 16.1204 134.112 11.8045 133.137 7.25528C133.075 6.96323 132.786 6.77759 132.494 6.83833C132.202 6.90117 132.015 7.18636 132.077 7.4784C132.956 11.5778 130.493 15.4558 126.395 16.4747ZM125.001 16.4842C124.796 16.2599 124.581 16.0462 124.354 15.8412C124.232 15.7323 123.995 15.5381 123.745 15.4229C123.687 15.3966 123.591 15.3731 123.547 15.3632C123.442 15.4924 123.382 15.5982 123.409 15.7012C123.44 15.8297 123.563 15.9188 123.701 16.0093C124.049 16.2369 124.542 16.3952 125.001 16.4842Z" fill="#F06111"/>
<path fill-rule="evenodd" clip-rule="evenodd" d="M113.206 33.4074C116.509 33.748 119.653 33.6891 121.409 32.5016C126.424 29.1081 128.669 23.7463 126.803 19.3344C126.553 18.7421 126.249 18.1733 125.894 17.6372C125.138 17.6387 123.866 17.4038 123.109 16.9106C122.713 16.6524 122.448 16.324 122.357 15.9593C122.262 15.5805 122.331 15.1322 122.737 14.6419C123.042 14.2728 123.482 14.2009 123.952 14.3497C124.393 14.4877 124.863 14.8485 125.079 15.0423C125.564 15.4771 126.003 15.9591 126.395 16.4748C130.493 15.4558 132.956 11.5778 132.077 7.47845C132.015 7.1864 132.201 6.90121 132.494 6.83837C132.786 6.77763 133.075 6.96328 133.137 7.25532C134.052 11.5221 131.796 15.5838 127.843 17.1431C127.581 17.2463 127.312 17.3385 127.036 17.4191C127.073 17.479 127.108 17.5393 127.144 17.6C127.176 17.6558 127.208 17.7119 127.24 17.7683C127.313 17.8992 127.383 18.0316 127.451 18.1652C127.577 18.4123 127.694 18.6639 127.802 18.9188C129.846 23.7502 127.513 29.6755 122.02 33.3928C120.313 34.547 117.417 34.8091 114.256 34.5818C111.554 34.3877 108.657 33.8541 106.195 33.3076C105.417 33.1351 104.683 32.9613 104.013 32.7965C104.637 33.2068 105.244 33.6368 105.839 34.0831C106.629 34.6759 107.399 35.2975 108.164 35.9403C108.556 36.2699 108.95 36.5994 109.344 36.9296C114.091 40.9002 118.957 44.9705 122.005 50.4255C122.15 50.6874 122.056 51.0153 121.795 51.1581C121.533 51.303 121.203 51.2074 121.058 50.9476C118.094 45.644 113.36 41.6896 108.74 37.8297C108.314 37.4736 107.888 37.1183 107.465 36.7628C105.89 35.4381 104.292 34.2055 102.532 33.1355C102.465 33.0948 102.399 33.0541 102.332 33.0134C101.876 32.7341 101.421 32.4556 100.951 32.2004C100.892 32.1687 100.804 32.1566 100.714 32.1441C100.675 32.1387 100.635 32.1332 100.597 32.1261C100.415 32.09 100.248 32.0438 100.133 31.9851C99.9252 31.877 99.8103 31.7189 99.7632 31.5472C99.7293 31.4205 99.7268 31.272 99.7979 31.1024C99.8484 30.9856 99.9487 30.8246 100.207 30.7784C100.26 30.768 100.508 30.7837 100.911 30.8845C101.123 30.938 101.401 31.0114 101.735 31.0996C103.971 31.6898 108.733 32.9466 113.206 33.4074ZM100.059 29.9573C100.173 29.9366 100.279 29.9412 100.318 29.9429C100.384 29.9457 100.456 29.9523 100.533 29.9622C100.689 29.982 100.884 30.0176 101.113 30.0751L101.115 30.0756C101.334 30.1308 101.618 30.2057 101.958 30.2953C104.205 30.888 108.891 32.1242 113.292 32.5775L113.292 32.5775C114.918 32.7452 116.472 32.8106 117.817 32.6962C119.177 32.5806 120.236 32.2877 120.942 31.8105C125.757 28.5521 127.691 23.5762 126.035 19.6594C125.858 19.2419 125.653 18.8377 125.421 18.4507C125.072 18.4213 124.688 18.3611 124.309 18.2713C123.755 18.1399 123.144 17.9296 122.653 17.6096L122.653 17.6095C122.137 17.2731 121.704 16.7876 121.547 16.1615C121.381 15.4949 121.54 14.7791 122.094 14.1102L122.094 14.1097C122.672 13.4112 123.503 13.3327 124.202 13.5538C124.818 13.7466 125.395 14.2049 125.636 14.4212C126.018 14.7637 126.372 15.1321 126.699 15.5204C130.061 14.4288 132.007 11.1322 131.261 7.65335L131.261 7.65221C131.102 6.9049 131.581 6.18098 132.319 6.02263L132.324 6.02148L132.324 6.0215C133.061 5.8685 133.793 6.33469 133.953 7.08087C134.948 11.7223 132.509 16.1493 128.243 17.8818C128.359 18.116 128.468 18.3535 128.57 18.5935L128.57 18.5938C130.817 23.9058 128.197 30.2203 122.488 34.0838L122.487 34.0839C121.486 34.761 120.194 35.1418 118.796 35.3321C117.388 35.5237 115.813 35.5303 114.196 35.414C112.043 35.2593 109.777 34.8945 107.703 34.4792C108.038 34.7497 108.37 35.024 108.701 35.3016L108.701 35.3017C109.097 35.6351 109.497 35.9693 109.898 36.305C114.623 40.2555 119.606 44.4223 122.733 50.0185L122.734 50.0212C123.101 50.6827 122.867 51.5215 122.197 51.8891C121.531 52.2565 120.697 52.0121 120.33 51.3549L120.33 51.3546C117.444 46.1928 112.831 42.3364 108.188 38.4564C107.768 38.1053 107.348 37.7539 106.929 37.4014L106.929 37.4014C105.37 36.0905 103.808 34.8876 102.098 33.8484L102.097 33.8475C102.029 33.806 101.962 33.7649 101.895 33.724C101.463 33.4593 101.051 33.2071 100.627 32.9744C100.627 32.9744 100.627 32.9743 100.626 32.9743C100.614 32.9725 100.599 32.9705 100.578 32.9676C100.544 32.9628 100.495 32.9558 100.443 32.946L100.435 32.9445L100.435 32.9444C100.237 32.9052 99.9751 32.8415 99.753 32.728L99.7474 32.7251C99.3376 32.5117 99.0681 32.1674 98.9586 31.7677L98.9573 31.763C98.8797 31.4732 98.88 31.1341 99.0285 30.7798L99.032 30.7715L99.032 30.7716C99.1441 30.5121 99.4225 30.0718 100.059 29.9573ZM124.041 16.192C124.336 16.324 124.677 16.4214 125 16.4842C124.796 16.2599 124.581 16.0463 124.354 15.8412C124.321 15.8116 124.279 15.7757 124.231 15.7367C124.163 15.6817 124.082 15.6205 123.993 15.5628C123.993 15.5627 123.993 15.5625 123.993 15.5624C123.991 15.561 123.989 15.5597 123.987 15.5583C123.985 15.5574 123.984 15.5565 123.982 15.5555C123.907 15.5067 123.827 15.4606 123.745 15.423C123.687 15.3967 123.591 15.3732 123.547 15.3633C123.442 15.4924 123.382 15.5982 123.408 15.7012C123.417 15.7348 123.431 15.7656 123.451 15.7945C123.472 15.8268 123.5 15.8567 123.532 15.8852C123.533 15.8864 123.535 15.8877 123.536 15.8889C123.584 15.931 123.641 15.97 123.701 16.0093C123.803 16.0757 123.916 16.1361 124.038 16.1907C124.039 16.1911 124.04 16.1916 124.041 16.192Z" fill="#F06111"/>
<path fill-rule="evenodd" clip-rule="evenodd" d="M68.9678 139.703C65.4942 137.308 63.2173 134.112 62.1654 130.023C62.0411 129.541 61.5473 129.248 61.0625 129.371C60.5788 129.491 60.2861 129.983 60.4103 130.465C61.5756 134.99 64.0935 138.533 67.9394 141.184C68.3505 141.469 68.9164 141.365 69.1995 140.958C69.484 140.547 69.38 139.984 68.9678 139.703Z" fill="#F06111"/>
<path fill-rule="evenodd" clip-rule="evenodd" d="M56.5207 161.519C56.8583 162.072 57.2458 162.596 57.6838 163.078C57.8787 163.293 58.3094 163.7 58.7342 163.882C59.1863 164.078 59.6315 164.051 59.9732 163.715C60.4265 163.269 60.5409 162.83 60.4851 162.443C60.4319 162.071 60.2016 161.718 59.834 161.42C59.1313 160.853 57.8895 160.489 57.1369 160.414C56.8385 159.844 56.5945 159.248 56.4057 158.633C54.9995 154.054 57.7789 148.949 63.1132 146.084C64.9807 145.081 68.1149 145.343 71.3657 146.018C76.4274 147.069 81.7607 149.205 83.3399 149.781C83.7302 149.922 83.9761 149.963 84.0296 149.958C84.2911 149.938 84.4072 149.788 84.4693 149.677C84.5573 149.516 84.57 149.368 84.5492 149.238C84.5199 149.063 84.4217 148.894 84.2262 148.765C84.1179 148.695 83.9557 148.632 83.7785 148.577C83.6552 148.541 83.5137 148.521 83.4345 148.467C82.9277 148.122 82.445 147.748 81.957 147.376C80.315 146.132 78.8506 144.743 77.4183 143.265C72.8669 138.568 67.9725 133.862 65.3416 127.77C65.2235 127.496 64.9049 127.368 64.63 127.485C64.3558 127.6 64.229 127.917 64.3466 128.192C67.0291 134.407 71.9985 139.222 76.6399 144.012C77.8584 145.27 79.1 146.464 80.449 147.563C77.7382 146.595 73.9509 145.359 70.4412 144.743C67.3199 144.195 64.4116 144.161 62.5962 145.135C56.7526 148.273 53.829 153.93 55.3701 158.945C55.5352 159.481 55.7379 160.007 55.979 160.515C51.422 161.353 48.3676 165.379 48.8746 170.004C48.9067 170.301 49.1745 170.515 49.4714 170.484C49.769 170.452 49.9837 170.187 49.9516 169.89C49.4948 165.722 52.3405 162.116 56.5207 161.519ZM57.9088 161.652C58.089 161.896 58.2819 162.13 58.4864 162.357C58.5965 162.478 58.8132 162.696 59.0494 162.836C59.105 162.868 59.1977 162.901 59.2409 162.915C59.3578 162.797 59.4282 162.698 59.4127 162.593C59.3942 162.462 59.2816 162.361 59.153 162.257C58.8302 161.995 58.3561 161.787 57.9088 161.652Z" fill="#F06111"/>
<path fill-rule="evenodd" clip-rule="evenodd" d="M71.3654 146.018C68.1146 145.343 64.9805 145.081 63.113 146.084C57.7787 148.949 54.9993 154.054 56.4055 158.633C56.5943 159.248 56.8382 159.844 57.1367 160.414C57.8892 160.489 59.1311 160.853 59.8338 161.42C60.2014 161.718 60.4316 162.071 60.4849 162.443C60.5406 162.83 60.4263 163.269 59.973 163.715C59.6313 164.051 59.1861 164.078 58.734 163.882C58.3092 163.7 57.8785 163.293 57.6835 163.078C57.2456 162.596 56.858 162.072 56.5205 161.519C52.3403 162.115 49.4946 165.722 49.9513 169.89C49.9834 170.187 49.7688 170.451 49.4712 170.484C49.1743 170.515 48.9065 170.301 48.8744 170.004C48.3989 165.666 51.0562 161.855 55.148 160.707C55.4188 160.631 55.6958 160.567 55.9787 160.514C55.9486 160.451 55.9191 160.387 55.8902 160.324C55.8636 160.265 55.8375 160.206 55.8119 160.146C55.7524 160.009 55.6957 159.87 55.6417 159.73C55.5419 159.471 55.4513 159.209 55.3698 158.945C53.8288 153.93 56.7524 148.273 62.596 145.135C64.4114 144.16 67.3197 144.195 70.441 144.743C73.1086 145.211 75.9365 146.037 78.3303 146.832C79.086 147.083 79.7984 147.33 80.4488 147.562C79.8694 147.091 79.3098 146.601 78.7634 146.097C78.0375 145.426 77.3348 144.729 76.6396 144.012C76.2832 143.644 75.9249 143.276 75.5658 142.908C71.2486 138.474 66.8229 133.929 64.3464 128.192C64.2287 127.917 64.3556 127.6 64.6298 127.485C64.9047 127.367 65.2232 127.496 65.3413 127.769C67.75 133.347 72.0559 137.763 76.2589 142.074C76.6467 142.472 77.0336 142.868 77.418 143.265C78.8504 144.743 80.3147 146.132 81.9567 147.376C82.0188 147.423 82.0808 147.471 82.1428 147.518C82.568 147.842 82.9919 148.166 83.4342 148.467C83.4896 148.505 83.5754 148.526 83.6641 148.547C83.7023 148.557 83.7411 148.566 83.7782 148.577C83.9555 148.632 84.1177 148.695 84.226 148.765C84.4214 148.894 84.5196 149.063 84.5489 149.238C84.5698 149.368 84.5571 149.516 84.4691 149.677C84.407 149.788 84.2909 149.938 84.0294 149.958C83.9759 149.963 83.73 149.922 83.3397 149.78C83.1343 149.706 82.8654 149.604 82.5418 149.483C80.3777 148.668 75.7688 146.932 71.3654 146.018ZM84.0932 150.79C83.9773 150.799 83.8721 150.783 83.8333 150.778C83.7684 150.768 83.6969 150.754 83.6213 150.736C83.469 150.701 83.2784 150.646 83.0558 150.565L83.054 150.564C82.842 150.487 82.5672 150.384 82.2384 150.26C80.0635 149.441 75.5272 147.734 71.1958 146.835L71.1957 146.835C69.5955 146.503 68.0561 146.279 66.7061 146.256C65.3412 146.232 64.2581 146.416 63.5076 146.819C58.3857 149.57 55.9547 154.323 57.203 158.388C57.3361 158.821 57.4987 159.244 57.6903 159.653C58.0342 159.718 58.4102 159.817 58.778 159.944C59.3163 160.132 59.9023 160.403 60.3581 160.771L60.3584 160.772C60.8372 161.159 61.2192 161.686 61.3107 162.325C61.4087 163.005 61.1769 163.701 60.5584 164.31L60.558 164.31C59.9114 164.946 59.0774 164.94 58.4039 164.648C57.8117 164.394 57.2837 163.879 57.0661 163.639C56.7211 163.26 56.406 162.857 56.1203 162.438C52.6646 163.181 50.3931 166.262 50.7807 169.799L50.7808 169.8C50.863 170.56 50.3122 171.231 49.5623 171.313L49.5569 171.314L49.5569 171.314C48.8089 171.391 48.1274 170.853 48.0449 170.094C47.5279 165.376 50.4052 161.22 54.8256 159.931C54.7334 159.686 54.6491 159.439 54.5724 159.19L54.5723 159.19C52.878 153.676 56.1278 147.662 62.2012 144.4L62.2014 144.4C63.2664 143.828 64.5905 143.581 66.001 143.534C67.4207 143.487 68.9887 143.641 70.5853 143.921C72.7111 144.294 74.9283 144.888 76.9487 145.512C76.6431 145.209 76.3407 144.903 76.0405 144.593L76.0404 144.593C75.6799 144.221 75.3164 143.847 74.9511 143.473C70.6538 139.061 66.121 134.409 63.5804 128.523L63.5791 128.52C63.2821 127.825 63.6003 127.014 64.3042 126.717C65.004 126.419 65.8084 126.747 66.1072 127.438L66.1073 127.439C68.4516 132.868 72.6487 137.174 76.8714 141.507C77.2536 141.899 77.636 142.291 78.0172 142.684L78.0172 142.684C79.4346 144.147 80.8658 145.503 82.4605 146.711L82.462 146.712C82.5252 146.76 82.5879 146.808 82.6501 146.855C83.0532 147.163 83.437 147.456 83.8347 147.73C83.8351 147.73 83.8355 147.73 83.8359 147.731C83.848 147.734 83.8627 147.737 83.8828 147.742C83.9163 147.75 83.9643 147.762 84.015 147.777L84.0232 147.78L84.0232 147.78C84.216 147.839 84.47 147.929 84.6794 148.065L84.6846 148.068C85.0706 148.322 85.3037 148.692 85.3719 149.101L85.3727 149.106C85.4203 149.402 85.3855 149.739 85.2017 150.076L85.1974 150.084L85.1973 150.084C85.0594 150.331 84.7376 150.741 84.0932 150.79ZM58.8335 162.04C58.5537 161.879 58.2244 161.747 57.9085 161.652C58.0887 161.896 58.2816 162.13 58.4861 162.357C58.5161 162.39 58.554 162.43 58.598 162.474C58.6602 162.536 58.7347 162.605 58.8165 162.671C58.8166 162.671 58.8168 162.671 58.817 162.671C58.8189 162.673 58.8209 162.675 58.8229 162.676C58.8242 162.677 58.8255 162.678 58.8268 162.679C58.8968 162.736 58.972 162.79 59.0492 162.835C59.1048 162.868 59.1975 162.901 59.2407 162.915C59.3575 162.797 59.428 162.698 59.4125 162.593C59.4077 162.559 59.3964 162.527 59.3802 162.496C59.362 162.461 59.3375 162.429 59.3087 162.397C59.3074 162.396 59.3061 162.395 59.3048 162.393C59.2614 162.346 59.2086 162.302 59.1527 162.257C59.0586 162.18 58.9517 162.109 58.8363 162.042C58.8354 162.041 58.8345 162.041 58.8335 162.04Z" fill="#F06111"/>
</svg>
