<svg width="180" height="180" viewBox="0 0 180 180" fill="none" xmlns="http://www.w3.org/2000/svg">
<g clip-path="url(#clip0_308_3426)">
<path d="M95.1722 167.189C131.687 167.189 161.289 137.587 161.289 101.072C161.289 64.5566 131.687 34.9551 95.1722 34.9551C58.6569 34.9551 29.0554 64.5566 29.0554 101.072C29.0554 137.587 58.6569 167.189 95.1722 167.189Z" fill="#EDEDED"/>
<path d="M62.6907 106.417L83.0958 50.386L141.683 112.333L93.2299 134.575C75.0631 142.914 55.8505 125.2 62.6907 106.417Z" fill="#5E5B5A"/>
<path d="M119.81 74.628C127.891 83.2383 134.4 91.7698 138.394 98.5948C140.393 102.011 141.747 104.975 142.361 107.294C142.669 108.454 142.784 109.427 142.717 110.2C142.651 110.97 142.409 111.509 142.032 111.862C141.656 112.215 141.103 112.423 140.33 112.44C139.554 112.458 138.591 112.281 137.453 111.901C135.178 111.141 132.305 109.602 129.022 107.391C122.464 102.973 114.361 95.9369 106.28 87.3266C98.1988 78.7163 91.6898 70.1848 87.6963 63.3598C85.6975 59.9437 84.3433 56.9792 83.7287 54.6602C83.4214 53.5004 83.3062 52.5279 83.3729 51.7543C83.4392 50.9848 83.6813 50.446 84.0579 50.0925C84.4344 49.7391 84.9875 49.5316 85.7597 49.5141C86.536 49.4966 87.4992 49.6731 88.6372 50.0533C90.9127 50.8134 93.7854 52.3527 97.0681 54.5638C103.627 58.9814 111.729 66.0177 119.81 74.628Z" fill="#F06111" stroke="#F06111"/>
<mask id="mask0_308_3426" style="mask-type:alpha" maskUnits="userSpaceOnUse" x="61" y="50" width="81" height="87">
<path d="M62.6909 106.417L83.0961 50.386L141.683 112.333L93.2301 134.575C75.0633 142.914 55.8507 125.2 62.6909 106.417Z" fill="#E1DCEB"/>
</mask>
<g mask="url(#mask0_308_3426)">
<path fill-rule="evenodd" clip-rule="evenodd" d="M81.794 101.113C70.056 85.7414 64.117 67.4152 62.2014 55.1115L71.6534 53.6399C73.3776 64.7149 78.8199 81.4567 89.3967 95.308C99.874 109.029 115.203 119.729 137.063 119.729V129.295C111.551 129.295 93.6314 116.616 81.794 101.113Z" fill="#F06111"/>
<path fill-rule="evenodd" clip-rule="evenodd" d="M83.0532 98.1737C71.3153 82.8017 65.3762 64.4755 63.4607 52.1718L72.9127 50.7002C74.6369 61.7752 80.0792 78.517 90.656 92.3683C101.133 106.089 116.462 116.789 138.323 116.789V126.355C112.81 126.355 94.8907 113.676 83.0532 98.1737Z" fill="#DBDBDB"/>
<path fill-rule="evenodd" clip-rule="evenodd" d="M67.9343 120.433C56.1964 105.061 50.2573 86.7343 48.3418 74.4305L57.7938 72.959C59.518 84.0339 64.9603 100.776 75.5371 114.627C86.0144 128.348 101.343 139.048 123.204 139.048V148.614C97.6913 148.614 79.7718 135.935 67.9343 120.433Z" fill="#DBDBDB"/>
</g>
<circle cx="108.958" cy="132.864" r="16.8809" fill="#F06111"/>
<path fill-rule="evenodd" clip-rule="evenodd" d="M115.789 127.742C116.442 128.407 116.433 129.475 115.768 130.129L107.754 138.007C107.097 138.652 106.044 138.652 105.388 138.007L102.148 134.822C101.483 134.169 101.474 133.1 102.127 132.435C102.781 131.77 103.85 131.761 104.515 132.414L106.571 134.436L113.402 127.721C114.067 127.068 115.135 127.077 115.789 127.742Z" fill="#DBDBDB"/>
<path d="M141.764 52.1887L141.764 52.1884C142.754 49.6758 143.148 47.172 143.565 44.5195C143.637 44.0669 143.709 43.6098 143.784 43.1477L141.764 52.1887ZM141.764 52.1887C141.638 52.5095 141.274 52.6678 140.955 52.5415L140.952 52.5404C140.632 52.4161 140.473 52.054 140.599 51.7341L140.599 51.734M141.764 52.1887L140.599 51.734M140.599 51.734C141.562 49.2875 141.942 46.8346 142.324 44.3717M140.599 51.734L142.324 44.3717M143.267 42.4309C142.928 42.3749 142.605 42.6061 142.549 42.9473L143.267 42.4309ZM143.267 42.4309C143.61 42.4873 143.84 42.8084 143.784 43.1476L143.267 42.4309ZM142.324 44.3717C142.398 43.8973 142.471 43.4226 142.549 42.9475L142.324 44.3717Z" fill="#F06111" stroke="#F06111"/>
<path d="M146.934 57.8325C152.619 53.8976 158.187 48.5998 162.329 43.047L162.33 43.0467C162.535 42.7717 162.927 42.7132 163.206 42.9195C163.482 43.1233 163.54 43.5137 163.334 43.7899C159.119 49.4407 153.442 54.8425 147.65 58.855L147.649 58.8554C147.367 59.0516 146.976 58.9814 146.778 58.6981C146.582 58.4178 146.651 58.0297 146.934 57.8325ZM146.934 57.8325C146.934 57.8326 146.934 57.8327 146.934 57.8328L146.649 57.4217M146.934 57.8325C146.934 57.8324 146.935 57.8324 146.935 57.8323L146.649 57.4217M146.649 57.4217C152.291 53.5162 157.82 48.2555 161.929 42.748C162.299 42.2504 163.005 42.1486 163.504 42.5175C164.003 42.8863 164.106 43.5909 163.735 44.0886L147.935 59.2661C147.425 59.6204 146.723 59.4924 146.368 58.9844C146.013 58.4763 146.139 57.7761 146.649 57.4217Z" fill="#F06111" stroke="#F06111"/>
<path d="M163.158 62.8046L163.158 62.8037C163.063 62.4738 162.717 62.2805 162.383 62.3748C158.182 63.5766 153.444 64.2854 149.07 62.9509L149.07 62.9509C148.738 62.8496 148.389 63.037 148.289 63.3631L148.289 63.3634C148.189 63.689 148.374 64.0397 148.704 64.1409L163.158 62.8046ZM163.158 62.8046C163.252 63.129 163.064 63.4755 162.729 63.5727M163.158 62.8046L162.729 63.5727M162.729 63.5727C158.19 64.8695 153.22 65.5194 148.704 64.1409L162.729 63.5727Z" fill="#F06111" stroke="#F06111"/>
<circle cx="148.909" cy="72.6557" r="3.37618" fill="white"/>
<circle cx="120.774" cy="37.7685" r="3.37618" fill="white"/>
<path d="M127.269 52.658C126.978 51.4516 125.262 51.4516 124.971 52.658L124.593 54.2207C124.489 54.6518 124.153 54.9884 123.722 55.0925L122.159 55.4697C120.952 55.761 120.952 57.477 122.159 57.7682L123.722 58.1454C124.153 58.2495 124.489 58.5861 124.593 59.0172L124.971 60.5799C125.262 61.7864 126.978 61.7864 127.269 60.5799L127.646 59.0172C127.75 58.5861 128.087 58.2495 128.518 58.1454L130.081 57.7682C131.287 57.477 131.287 55.761 130.081 55.4697L128.518 55.0925C128.087 54.9884 127.75 54.6518 127.646 54.2207L127.269 52.658Z" fill="#C4C9C4"/>
<path fill-rule="evenodd" clip-rule="evenodd" d="M112.878 26.6893C113.219 27.5569 112.792 28.5369 111.924 28.878C109.448 29.8519 106.274 32.9888 104.155 36.8932C102.542 39.8652 101.758 42.8667 102.087 45.323C103.078 43.9085 104.265 42.7482 105.641 42.0028C108.107 40.6667 110.922 40.8085 113.646 42.6653C116.027 44.2876 116.998 46.5961 116.741 48.8963C116.495 51.0955 115.154 53.0837 113.334 54.3327C111.486 55.6003 109.034 56.1849 106.503 55.4101C105.069 54.9709 103.694 54.1216 102.435 52.832C101.234 57.5071 101.277 63.3631 103.262 68.5423C103.596 69.4129 103.16 70.389 102.29 70.7227C101.419 71.0563 100.443 70.621 100.109 69.7504C97.4918 62.92 97.8319 55.119 99.9664 49.4375C99.9057 49.3279 99.8456 49.2169 99.786 49.1043C97.5405 44.8647 98.885 39.5254 101.188 35.2828C103.508 31.0074 107.188 27.1129 110.689 25.7361C111.556 25.3949 112.536 25.8217 112.878 26.6893ZM103.757 49.1472C105.032 50.9584 106.355 51.8337 107.492 52.1819C108.924 52.6204 110.32 52.3059 111.423 51.5489C112.554 50.7732 113.264 49.6111 113.386 48.5213C113.496 47.5323 113.151 46.4129 111.745 45.4552C109.964 44.2414 108.501 44.293 107.249 44.9714C106 45.648 104.763 47.0636 103.757 49.1472Z" fill="white"/>
<path fill-rule="evenodd" clip-rule="evenodd" d="M167.371 92.7111C149.677 86.1343 136.136 94.3123 131.757 98.9377C130.689 100.066 128.908 100.115 127.779 99.0466C126.651 97.9784 126.602 96.1977 127.67 95.0693C133.231 89.1952 149.06 79.9021 169.332 87.4366C170.788 87.978 171.53 89.5976 170.989 91.054C170.447 92.5105 168.828 93.2524 167.371 92.7111Z" fill="white"/>
<path fill-rule="evenodd" clip-rule="evenodd" d="M149.37 98.6234C149.765 98.4788 150.18 98.2866 150.501 98.0084C150.881 97.678 151.036 97.2524 151.14 96.8045C151.273 96.2289 151.327 95.6158 151.488 95.0394C151.548 94.8253 151.664 94.7444 151.713 94.7085C151.838 94.6178 151.964 94.5935 152.083 94.6026C152.224 94.6131 152.418 94.6679 152.545 94.9107C152.563 94.9454 152.587 94.9983 152.603 95.0709C152.614 95.124 152.622 95.2903 152.634 95.3589C152.665 95.5277 152.69 95.6965 152.714 95.8663C152.795 96.4313 152.841 96.9112 153.094 97.4303C153.437 98.1351 153.781 98.5662 154.248 98.7572C154.699 98.9419 155.238 98.9072 155.927 98.7624C155.993 98.746 156.058 98.732 156.122 98.7206C156.426 98.6661 156.716 98.871 156.776 99.1821C156.836 99.493 156.643 99.7959 156.341 99.8642C156.279 99.8784 156.217 99.892 156.155 99.9043C155.224 100.141 154.146 100.987 153.519 101.727C153.326 101.956 153.043 102.594 152.755 103.001C152.542 103.301 152.303 103.499 152.102 103.569C151.968 103.616 151.854 103.609 151.76 103.585C151.624 103.551 151.511 103.475 151.425 103.354C151.377 103.288 151.334 103.2 151.313 103.087C151.303 103.033 151.302 102.895 151.302 102.832C151.243 102.625 151.171 102.422 151.119 102.212C150.994 101.712 150.748 101.395 150.457 100.977C150.184 100.585 149.892 100.339 149.463 100.143C149.407 100.129 148.956 100.016 148.797 99.9505C148.565 99.8551 148.454 99.6954 148.414 99.6093C148.346 99.4633 148.339 99.3358 148.352 99.2295C148.372 99.0725 148.441 98.9382 148.563 98.8298C148.638 98.7624 148.75 98.6968 148.901 98.6649C149.018 98.6399 149.326 98.6255 149.37 98.6234ZM152.012 97.8081C152.033 97.8559 152.055 97.904 152.079 97.9525C152.582 98.9846 153.144 99.5608 153.828 99.8404L153.851 99.8495C153.393 100.198 152.979 100.588 152.663 100.962C152.533 101.116 152.36 101.436 152.174 101.764C152.005 101.198 151.728 100.798 151.38 100.298C151.114 99.9165 150.835 99.6292 150.493 99.395C150.759 99.2549 151.012 99.0907 151.233 98.899C151.6 98.5798 151.843 98.2099 152.012 97.8081Z" fill="#C4C9C4"/>
<path d="M50.0573 98.617C47.4771 100.939 46.0049 103.824 45.5803 107.262L50.0573 98.617ZM51.6763 98.708C51.2555 98.2336 50.5287 98.1927 50.0574 98.6169L51.6763 98.708Z" fill="#F06111" stroke="#F06111"/>
<path d="M17.5071 113.567L17.5068 113.567C16.7164 113.311 16.3511 112.637 16.2981 111.903C16.2483 111.242 16.4723 110.477 16.5995 110.132C16.5995 110.132 16.5995 110.132 16.5996 110.132L17.0687 110.305L17.5071 113.567ZM17.5071 113.567C18.3652 113.844 19.0641 113.713 19.5883 113.336C20.0851 112.979 20.3835 112.409 20.5125 111.77L20.5125 111.77M17.5071 113.567L20.5125 111.77M20.5125 111.77C20.6354 111.16 20.6061 110.451 20.511 109.804C20.4321 109.268 20.3038 108.747 20.1578 108.321C20.542 107.794 20.97 107.298 21.4358 106.839C25.2932 103.032 31.9755 103.069 37.8573 107.069M20.5125 111.77L37.8573 107.069M45.4208 130.2C45.3865 129.94 45.345 129.598 45.2952 129.186C44.9616 126.435 44.2513 120.575 42.7821 115.389C41.6979 111.56 40.2389 108.084 38.1385 106.655L45.4208 130.2ZM45.4208 130.2C45.487 130.693 45.5798 130.977 45.6146 131.031M45.4208 130.2L45.6146 131.031M37.8573 107.069C38.8044 107.713 39.647 108.851 40.3942 110.346C41.1373 111.833 41.7631 113.626 42.301 115.525L42.3011 115.525C43.7582 120.669 44.4634 126.482 44.798 129.241C44.8483 129.655 44.8902 130.001 44.9251 130.265L44.9252 130.266C44.9607 130.53 45.0039 130.744 45.0452 130.904C45.0657 130.984 45.0866 131.054 45.1069 131.112C45.1218 131.155 45.1492 131.23 45.1911 131.296C45.4786 131.758 45.8968 131.835 46.1421 131.842L46.1421 131.842L46.1475 131.842C46.4879 131.849 46.7588 131.739 46.9661 131.585L46.9685 131.583C47.2519 131.369 47.4465 131.044 47.4887 130.629L47.4891 130.625C47.5103 130.4 47.4763 130.136 47.4342 129.908L47.4332 129.903C47.4234 129.853 47.4119 129.805 47.4023 129.766C47.4 129.756 47.3978 129.747 47.3957 129.739C47.3885 129.709 47.3828 129.686 47.3775 129.663C47.3719 129.637 47.369 129.621 47.3676 129.611C47.4413 128.995 47.5465 128.385 47.6544 127.759C47.6703 127.667 47.6863 127.575 47.7023 127.482L47.7024 127.48C48.1081 125.081 48.7642 122.782 49.5372 120.453L49.5372 120.453C49.7449 119.827 49.9511 119.199 50.1574 118.571C52.4148 111.699 54.6931 104.764 59.2244 99.1878L59.2245 99.1877C59.6215 98.6988 59.553 97.9754 59.0622 97.5726C58.5717 97.1675 57.8495 97.2434 57.4487 97.7327L57.4475 97.7341C52.6621 103.621 50.2576 110.93 47.9454 117.958C47.751 118.549 47.5572 119.138 47.3627 119.725L47.3626 119.725C46.9724 120.901 46.6085 122.078 46.2886 123.268C45.8031 120.246 45.1039 116.711 44.1015 113.549C43.5211 111.717 42.828 110 42.0133 108.557C41.2012 107.119 40.2508 105.921 39.1415 105.167L39.1414 105.167C32.438 100.608 24.5254 100.562 19.828 105.199L19.8279 105.199C19.4818 105.541 19.1514 105.901 18.8402 106.277C15.2112 102.111 9.22619 101.235 4.54827 104.366C4.01919 104.719 3.88244 105.432 4.22933 105.958L4.22932 105.958L4.23114 105.961C4.58258 106.485 5.29207 106.633 5.82177 106.279L5.82236 106.279C9.68035 103.696 14.6487 104.557 17.4824 108.238L37.8573 107.069ZM45.6146 131.031C45.7805 131.298 46.0042 131.338 46.1566 131.342M45.6146 131.031L46.1566 131.342M46.1566 131.342C46.377 131.346 46.5413 131.278 46.6674 131.184M46.1566 131.342L46.6674 131.184M46.6674 131.184C46.8377 131.056 46.9629 130.858 46.9913 130.578M46.6674 131.184L46.9913 130.578M46.9913 130.578C47.0057 130.425 46.9828 130.217 46.9425 129.999L46.9913 130.578Z" fill="#F06111" stroke="#F06111"/>
</g>
<defs>
<clipPath id="clip0_308_3426">
<rect width="180" height="180" fill="white"/>
</clipPath>
</defs>
</svg>
