<svg width="80" height="80" viewBox="0 0 80 80" fill="none" xmlns="http://www.w3.org/2000/svg">
<path fill-rule="evenodd" clip-rule="evenodd" d="M39.9997 9.99992C34.4768 9.99992 29.9997 14.4771 29.9997 19.9999C29.9997 25.5228 34.4768 29.9999 39.9997 29.9999C45.5225 29.9999 49.9997 25.5228 49.9997 19.9999C49.9997 14.4771 45.5225 9.99992 39.9997 9.99992ZM23.333 19.9999C23.333 10.7952 30.7949 3.33325 39.9997 3.33325C49.2044 3.33325 56.6663 10.7952 56.6663 19.9999C56.6663 29.2047 49.2044 36.6666 39.9997 36.6666C30.7949 36.6666 23.333 29.2047 23.333 19.9999Z" fill="#292827"/>
<path fill-rule="evenodd" clip-rule="evenodd" d="M6.66699 73.3333C6.66699 54.9239 21.5909 40 40.0003 40C58.4098 40 73.3337 54.9239 73.3337 73.3333C73.3337 75.1743 71.8413 76.6667 70.0003 76.6667C68.1594 76.6667 66.667 75.1743 66.667 73.3333C66.667 58.6058 54.7279 46.6667 40.0003 46.6667C25.2728 46.6667 13.3337 58.6058 13.3337 73.3333C13.3337 75.1743 11.8413 76.6667 10.0003 76.6667C8.15938 76.6667 6.66699 75.1743 6.66699 73.3333Z" fill="#292827"/>
<path fill-rule="evenodd" clip-rule="evenodd" d="M40 40C41.4634 40 42.7556 40.9544 43.186 42.353L49.8526 64.0197C50.1771 65.0742 49.9588 66.2208 49.2696 67.0823L42.6029 75.4156C41.9704 76.2064 41.0127 76.6667 40 76.6667C38.9874 76.6667 38.0297 76.2064 37.3971 75.4156L30.7305 67.0823C30.0413 66.2208 29.823 65.0742 30.1474 64.0197L36.8141 42.353C37.2445 40.9544 38.5367 40 40 40ZM37.0379 64.2948L40 67.9974L42.9622 64.2948L40 54.6679L37.0379 64.2948Z" fill="#292827"/>
</svg>
