<svg width="180" height="180" viewBox="0 0 180 180" fill="none" xmlns="http://www.w3.org/2000/svg">
<path d="M89.2906 157.364C126.37 157.364 156.428 127.204 156.428 90C156.428 52.796 126.37 22.6362 89.2906 22.6362C52.2114 22.6362 22.1528 52.796 22.1528 90C22.1528 127.204 52.2114 157.364 89.2906 157.364Z" fill="#EDEDED"/>
<path fill-rule="evenodd" clip-rule="evenodd" d="M37.9922 28.6805C38.2827 28.577 38.5883 28.4395 38.824 28.2403C39.104 28.0038 39.2178 27.6991 39.2943 27.3785C39.3925 26.9665 39.4317 26.5276 39.5507 26.115C39.5948 25.9617 39.6796 25.9038 39.716 25.8781C39.8079 25.8131 39.9009 25.7958 39.9884 25.8023C40.0921 25.8098 40.2345 25.849 40.3281 26.0228C40.3415 26.0477 40.3588 26.0856 40.3705 26.1375C40.379 26.1756 40.3845 26.2946 40.3935 26.3437C40.4161 26.4645 40.4349 26.5854 40.4526 26.7069C40.5116 27.1114 40.5454 27.4549 40.7316 27.8265C40.9841 28.331 41.2372 28.6396 41.5804 28.7763C41.9123 28.9086 42.3091 28.8837 42.816 28.78C42.8643 28.7683 42.912 28.7583 42.9593 28.7501C43.1828 28.7111 43.3965 28.8578 43.4404 29.0805C43.4843 29.303 43.3422 29.5199 43.1207 29.5688C43.0745 29.579 43.0289 29.5886 42.9838 29.5975C42.2987 29.7671 41.5056 30.3724 41.0447 30.9024C40.9027 31.0658 40.6947 31.5227 40.4825 31.8142C40.3259 32.0292 40.15 32.1709 40.0022 32.221C39.9033 32.2547 39.8198 32.2495 39.7509 32.2325C39.6507 32.2078 39.5676 32.1535 39.5038 32.0672C39.4691 32.02 39.4368 31.9567 39.4215 31.8759C39.4141 31.837 39.4133 31.7382 39.4135 31.6935C39.3702 31.5447 39.3173 31.3995 39.2788 31.2494C39.1868 30.8914 39.0063 30.6647 38.792 30.3652C38.5915 30.0849 38.3762 29.9088 38.0605 29.7683C38.0194 29.7582 37.6881 29.6771 37.5711 29.6305C37.4001 29.5623 37.3187 29.4479 37.2891 29.3863C37.2389 29.2818 37.2337 29.1905 37.2437 29.1144C37.2586 29.002 37.309 28.9059 37.3985 28.8283C37.4539 28.78 37.5367 28.7331 37.6475 28.7102C37.7332 28.6924 37.9603 28.682 37.9922 28.6805ZM39.9361 28.0969C39.9515 28.1312 39.9679 28.1655 39.9852 28.2003C40.3551 28.9391 40.7688 29.3516 41.2716 29.5517L41.2885 29.5583C40.9521 29.808 40.6476 30.0871 40.4149 30.3547C40.3191 30.4649 40.1922 30.6937 40.0552 30.9284C39.9306 30.5236 39.727 30.2375 39.4709 29.8794C39.2753 29.6062 39.0703 29.4005 38.8184 29.2329C39.0138 29.1326 39.2003 29.0151 39.3627 28.8778C39.6332 28.6493 39.8119 28.3846 39.9361 28.0969Z" fill="#F06111"/>
<path fill-rule="evenodd" clip-rule="evenodd" d="M145.141 124.979C145.432 124.875 145.737 124.738 145.973 124.539C146.253 124.302 146.367 123.998 146.443 123.677C146.541 123.265 146.581 122.826 146.7 122.413C146.744 122.26 146.828 122.202 146.865 122.177C146.957 122.112 147.05 122.094 147.137 122.101C147.241 122.108 147.383 122.148 147.477 122.321C147.49 122.346 147.508 122.384 147.519 122.436C147.528 122.474 147.533 122.593 147.542 122.642C147.565 122.763 147.584 122.884 147.602 123.005C147.66 123.41 147.694 123.753 147.88 124.125C148.133 124.629 148.386 124.938 148.729 125.075C149.061 125.207 149.458 125.182 149.965 125.078C150.013 125.067 150.061 125.057 150.108 125.049C150.332 125.01 150.545 125.156 150.589 125.379C150.633 125.601 150.491 125.818 150.27 125.867C150.223 125.877 150.178 125.887 150.133 125.896C149.448 126.066 148.655 126.671 148.194 127.201C148.052 127.364 147.844 127.821 147.631 128.113C147.475 128.328 147.299 128.469 147.151 128.519C147.052 128.553 146.969 128.548 146.9 128.531C146.8 128.506 146.716 128.452 146.653 128.366C146.618 128.318 146.586 128.255 146.57 128.174C146.563 128.135 146.562 128.037 146.562 127.992C146.519 127.843 146.466 127.698 146.428 127.548C146.336 127.19 146.155 126.963 145.941 126.664C145.74 126.383 145.525 126.207 145.209 126.067C145.168 126.057 144.837 125.976 144.72 125.929C144.549 125.861 144.468 125.746 144.438 125.685C144.388 125.58 144.383 125.489 144.393 125.413C144.407 125.301 144.458 125.204 144.547 125.127C144.603 125.078 144.686 125.032 144.796 125.009C144.882 124.991 145.109 124.98 145.141 124.979ZM147.085 124.395C147.1 124.43 147.117 124.464 147.134 124.499C147.504 125.238 147.918 125.65 148.421 125.85L148.437 125.857C148.101 126.106 147.797 126.386 147.564 126.653C147.468 126.763 147.341 126.992 147.204 127.227C147.08 126.822 146.876 126.536 146.62 126.178C146.424 125.905 146.219 125.699 145.967 125.531C146.163 125.431 146.349 125.314 146.512 125.176C146.782 124.948 146.961 124.683 147.085 124.395Z" fill="#F06111"/>
<path fill-rule="evenodd" clip-rule="evenodd" d="M116.658 93.7838C116.949 93.6803 117.255 93.5428 117.49 93.3436C117.77 93.1071 117.884 92.8024 117.961 92.4817C118.059 92.0698 118.098 91.6309 118.217 91.2182C118.261 91.065 118.346 91.0071 118.382 90.9814C118.474 90.9164 118.567 90.8991 118.655 90.9056C118.758 90.9131 118.901 90.9523 118.994 91.1261C119.008 91.151 119.025 91.1889 119.037 91.2408C119.045 91.2788 119.051 91.3979 119.06 91.4469C119.082 91.5678 119.101 91.6887 119.119 91.8102C119.178 92.2147 119.212 92.5582 119.398 92.9298C119.65 93.4342 119.903 93.7429 120.247 93.8796C120.579 94.0118 120.975 93.987 121.482 93.8833C121.531 93.8716 121.578 93.8616 121.626 93.8534C121.849 93.8144 122.063 93.9611 122.107 94.1838C122.151 94.4063 122.008 94.6231 121.787 94.672C121.741 94.6822 121.695 94.6919 121.65 94.7008C120.965 94.8704 120.172 95.4757 119.711 96.0057C119.569 96.1691 119.361 96.626 119.149 96.9174C118.992 97.1324 118.816 97.2742 118.669 97.3243C118.57 97.358 118.486 97.3528 118.417 97.3358C118.317 97.3111 118.234 97.2568 118.17 97.1705C118.135 97.1233 118.103 97.06 118.088 96.9792C118.08 96.9403 118.08 96.8415 118.08 96.7968C118.037 96.648 117.984 96.5028 117.945 96.3527C117.853 95.9946 117.673 95.768 117.458 95.4685C117.258 95.1882 117.042 95.0121 116.727 94.8715C116.686 94.8615 116.354 94.7804 116.237 94.7338C116.066 94.6655 115.985 94.5512 115.955 94.4896C115.905 94.3851 115.9 94.2938 115.91 94.2177C115.925 94.1053 115.975 94.0092 116.065 93.9315C116.12 93.8833 116.203 93.8364 116.314 93.8135C116.399 93.7957 116.627 93.7853 116.658 93.7838ZM118.602 93.2002C118.618 93.2344 118.634 93.2688 118.651 93.3035C119.021 94.0424 119.435 94.4549 119.938 94.655L119.955 94.6615C119.618 94.9113 119.314 95.1904 119.081 95.458C118.985 95.5681 118.858 95.797 118.721 96.0317C118.597 95.6269 118.393 95.3408 118.137 94.9827C117.942 94.7094 117.737 94.5038 117.485 94.3362C117.68 94.2359 117.867 94.1183 118.029 93.9811C118.299 93.7526 118.478 93.4878 118.602 93.2002Z" fill="#F06111"/>
<path fill-rule="evenodd" clip-rule="evenodd" d="M32.682 106.143C34.1514 104.758 35.876 104.014 37.8948 103.932C38.1329 103.923 38.3198 103.721 38.3107 103.482C38.303 103.243 38.1024 103.057 37.8644 103.067C35.6298 103.158 33.7191 103.98 32.0921 105.513C31.9175 105.677 31.9094 105.952 32.0716 106.126C32.2351 106.3 32.5089 106.308 32.682 106.143Z" fill="#F06111"/>
<path fill-rule="evenodd" clip-rule="evenodd" d="M37.8946 103.932C35.8758 104.014 34.1512 104.758 32.6818 106.143C32.5087 106.308 32.2349 106.3 32.0714 106.126C31.9092 105.953 31.9173 105.677 32.0919 105.513C33.7189 103.98 35.6296 103.158 37.8642 103.067C38.1022 103.057 38.3028 103.243 38.3105 103.482C38.3196 103.721 38.1327 103.923 37.8946 103.932ZM37.8457 102.615C35.4999 102.71 33.4864 103.578 31.7822 105.184C31.4257 105.519 31.4091 106.08 31.7412 106.435L31.7416 106.435C32.0765 106.792 32.6374 106.809 32.9926 106.472C34.3846 105.16 36.0062 104.461 37.9129 104.384L37.9131 104.384C38.3996 104.364 38.7802 103.954 38.7623 103.466C38.7458 102.977 38.3344 102.595 37.8458 102.615" fill="#F06111"/>
<path fill-rule="evenodd" clip-rule="evenodd" d="M17.3207 94.0328C16.8311 94.2041 16.3557 94.4194 15.905 94.6813C15.7041 94.7977 15.3133 95.0666 15.0993 95.3685C14.8701 95.6894 14.8162 96.0424 15.0218 96.3663C15.2951 96.7961 15.6195 96.9593 15.9314 96.9806C16.2315 97.0015 16.547 96.8807 16.8414 96.6428C17.4039 96.1882 17.8969 95.2771 18.0824 94.7008C18.5783 94.5628 19.0864 94.4721 19.5993 94.4276C23.4197 94.0962 26.9489 97.1293 28.2953 101.786C28.7663 103.416 28.0349 105.825 26.9602 108.257C25.2874 112.042 22.7196 115.858 22.0038 116.997C21.8277 117.279 21.7543 117.465 21.7492 117.507C21.7207 117.715 21.8185 117.831 21.895 117.899C22.0066 117.995 22.1203 118.03 22.2252 118.035C22.3675 118.042 22.5163 117.993 22.6498 117.862C22.7229 117.789 22.7995 117.672 22.8719 117.543C22.9212 117.452 22.9604 117.345 23.0157 117.292C23.3715 116.953 23.7455 116.638 24.1181 116.319C25.3675 115.242 26.7007 114.33 28.0985 113.457C32.5394 110.683 37.0454 107.643 42.2563 106.607C42.49 106.56 42.6443 106.333 42.5985 106.098C42.5542 105.864 42.3277 105.711 42.0924 105.757C36.7776 106.813 32.1736 109.894 27.6444 112.722C26.4556 113.464 25.312 114.236 24.2256 115.107C25.4387 113.148 27.0419 110.391 28.1137 107.747C29.0671 105.396 29.5825 103.125 29.1248 101.541C27.6499 96.4395 23.7132 93.2007 19.5293 93.5646C19.0816 93.6037 18.6357 93.674 18.1981 93.7775C18.3071 90.0696 15.6691 87.0026 11.9638 86.6225C11.726 86.5977 11.5135 86.7714 11.4876 87.009C11.4632 87.2474 11.6344 87.4599 11.8721 87.4846C15.211 87.8272 17.5562 90.6606 17.3207 94.0328ZM16.9837 95.097C16.7625 95.197 16.5465 95.3086 16.3344 95.4306C16.2214 95.4965 16.0148 95.6296 15.8656 95.791C15.8311 95.8291 15.7896 95.8961 15.7711 95.9275C15.8437 96.0388 15.9095 96.1106 15.9944 96.1161C16.1001 96.1236 16.1981 96.0525 16.3013 95.9693C16.5604 95.7606 16.8027 95.4244 16.9837 95.097Z" fill="#F06111"/>
<path fill-rule="evenodd" clip-rule="evenodd" d="M15.9986 95.6649C15.9519 95.7042 15.9064 95.7466 15.8652 95.7911C15.8307 95.8292 15.7893 95.8962 15.7708 95.9276C15.8433 96.0389 15.9091 96.1107 15.994 96.1162C16.0216 96.1182 16.0487 96.1148 16.0754 96.1072C16.1054 96.0987 16.135 96.085 16.1645 96.0678C16.1658 96.067 16.1671 96.0662 16.1684 96.0654C16.2123 96.0393 16.2561 96.0055 16.3009 95.9693C16.3764 95.9085 16.4505 95.8369 16.5221 95.7578C16.5227 95.7571 16.5233 95.7565 16.5239 95.7558C16.6971 95.5639 16.8555 95.3283 16.9833 95.0971C16.7621 95.1971 16.5461 95.3087 16.334 95.4307C16.2598 95.474 16.1452 95.5463 16.033 95.6365C16.0328 95.6366 16.0327 95.6367 16.0326 95.6369C16.0212 95.646 16.0098 95.6553 15.9986 95.6649ZM15.0214 96.3664C14.8158 96.0425 14.8697 95.6895 15.0989 95.3686C15.313 95.0666 15.7037 94.7978 15.9046 94.6813C16.3554 94.4195 16.8308 94.2042 17.3203 94.0329C17.5558 90.6607 15.2106 87.8273 11.8717 87.4847C11.634 87.46 11.4629 87.2475 11.4873 87.0091C11.5131 86.7715 11.7257 86.5978 11.9634 86.6226C15.513 86.9867 18.0832 89.8167 18.1971 93.3138C18.2021 93.4672 18.2024 93.6218 18.1978 93.7776C18.3483 93.742 18.4999 93.7103 18.6521 93.6825C18.9424 93.6294 19.2353 93.5904 19.5289 93.5647C23.7128 93.2008 27.6496 96.4395 29.1244 101.541C29.5822 103.125 29.0667 105.396 28.1133 107.747C27.2245 109.939 25.9704 112.209 24.8763 114.038C24.651 114.415 24.4324 114.773 24.2252 115.107C24.5508 114.846 24.8816 114.594 25.2172 114.349C26.0013 113.776 26.8116 113.242 27.644 112.722C27.9918 112.505 28.34 112.286 28.689 112.067C32.8845 109.432 37.1853 106.732 42.092 105.757C42.3273 105.711 42.5539 105.864 42.5982 106.098C42.6439 106.333 42.4897 106.56 42.2559 106.607C37.4852 107.555 33.3052 110.184 29.2252 112.75C28.8488 112.986 28.4732 113.223 28.0981 113.457C26.7003 114.33 25.3671 115.242 24.1178 116.319C24.0703 116.359 24.0229 116.4 23.9754 116.441C23.6502 116.719 23.3259 116.996 23.0153 117.292C22.9767 117.329 22.9459 117.393 22.914 117.458C22.9003 117.487 22.8863 117.516 22.8715 117.543C22.7991 117.672 22.7225 117.789 22.6495 117.862C22.5159 117.993 22.3672 118.042 22.2248 118.035C22.1199 118.03 22.0062 117.995 21.8946 117.899C21.8181 117.832 21.7203 117.715 21.7488 117.507C21.7539 117.465 21.8273 117.279 22.0034 116.997C22.0965 116.849 22.2209 116.656 22.3706 116.423C23.372 114.866 25.5046 111.55 26.9599 108.257C28.0345 105.826 28.7659 103.416 28.2949 101.786C26.9485 97.1294 23.4193 94.0963 19.5989 94.4277C19.086 94.4722 18.5779 94.5629 18.082 94.7009C17.8965 95.2772 17.4035 96.1882 16.8411 96.6429C16.5467 96.8807 16.2311 97.0015 15.931 96.9807C15.6191 96.9594 15.2947 96.7962 15.0214 96.3664ZM18.4267 95.0779C18.3187 95.3522 18.1678 95.6586 17.9892 95.9523C17.7588 96.3315 17.4631 96.7214 17.1253 96.9945L17.1252 96.9946C16.7705 97.2811 16.3459 97.4625 15.9002 97.4318C15.4278 97.3995 14.9807 97.1449 14.6399 96.6089L14.6397 96.6087C14.3098 96.0891 14.4256 95.5338 14.7306 95.1064C15.0021 94.7239 15.4613 94.4158 15.6778 94.2903C16.0653 94.0652 16.469 93.8732 16.8828 93.7125C16.9532 90.7079 14.8211 88.2418 11.8256 87.9345L11.825 87.9344C11.3363 87.8836 10.988 87.4467 11.0375 86.963L11.0378 86.9601L11.0378 86.9601C11.0903 86.4783 11.5218 86.1223 12.0098 86.1729C15.7638 86.5581 18.4911 89.5405 18.6462 93.2243C18.926 93.1754 19.2076 93.1389 19.4896 93.1143L19.4897 93.1143C23.9554 92.7259 28.0446 96.1782 29.5588 101.415L29.5588 101.415C29.8145 102.301 29.7902 103.342 29.593 104.437C29.3949 105.537 29.0164 106.723 28.5323 107.917L28.1185 107.749L28.5323 107.917C28.5323 107.917 28.5323 107.917 28.5323 107.917C27.7688 109.8 26.7422 111.734 25.7773 113.399C26.3107 113.034 26.8537 112.683 27.4045 112.339L27.4046 112.338C27.7551 112.12 28.1068 111.899 28.4598 111.677C32.641 109.051 37.0113 106.305 42.0039 105.314L42.0056 105.313C42.4838 105.22 42.9503 105.53 43.0422 106.013C43.1351 106.493 42.82 106.956 42.3442 107.05L42.3441 107.05C37.6597 107.982 33.5502 110.565 29.4563 113.138C29.0834 113.373 28.7106 113.607 28.3376 113.84L28.3376 113.84C26.9497 114.707 25.6378 115.606 24.4129 116.661L24.4121 116.662C24.364 116.703 24.3162 116.744 24.2687 116.785C23.9508 117.057 23.6438 117.32 23.3494 117.598C23.3478 117.601 23.3459 117.605 23.3437 117.609C23.337 117.622 23.3307 117.635 23.3221 117.653C23.3195 117.658 23.3167 117.664 23.3136 117.671C23.3017 117.695 23.2861 117.727 23.2684 117.759L23.2662 117.763L23.2662 117.763C23.1895 117.901 23.0882 118.063 22.9689 118.182L22.9666 118.184C22.7449 118.402 22.4743 118.499 22.204 118.487L22.2014 118.487C22.0051 118.476 21.7936 118.408 21.5998 118.242L21.5961 118.238L21.5961 118.238C21.4565 118.116 21.2447 117.861 21.3006 117.448C21.3094 117.381 21.3316 117.32 21.3423 117.292C21.358 117.249 21.3785 117.201 21.403 117.149C21.4524 117.045 21.5236 116.912 21.62 116.758L21.6206 116.757C21.7157 116.605 21.8419 116.409 21.9932 116.174C22.9978 114.611 25.1072 111.331 26.5463 108.074L26.5464 108.074C27.0781 106.871 27.5174 105.69 27.7667 104.619C28.0178 103.539 28.0648 102.618 27.8606 101.912C26.5504 97.3804 23.1683 94.5718 19.638 94.8781C19.2291 94.9136 18.824 94.98 18.4267 95.0779Z" fill="#F06111"/>
<path fill-rule="evenodd" clip-rule="evenodd" d="M151.307 45.8087C150.717 43.8776 149.588 42.3765 147.874 41.3054C147.672 41.179 147.61 40.9112 147.736 40.7079C147.861 40.5046 148.128 40.4421 148.33 40.5685C150.226 41.7546 151.478 43.4156 152.131 45.5537C152.202 45.7825 152.073 46.0256 151.846 46.0958C151.617 46.1663 151.376 46.0375 151.307 45.8087Z" fill="#F06111"/>
<path fill-rule="evenodd" clip-rule="evenodd" d="M147.874 41.3055C149.587 42.3766 150.716 43.8777 151.306 45.8087C151.375 46.0376 151.617 46.1664 151.845 46.0959C152.072 46.0257 152.202 45.7826 152.131 45.5538C151.478 43.4157 150.225 41.7547 148.329 40.5686C148.127 40.4422 147.861 40.5047 147.736 40.708C147.61 40.9113 147.672 41.1791 147.874 41.3055ZM148.569 40.1854C150.56 41.4305 151.879 43.1817 152.563 45.4212C152.707 45.8886 152.444 46.3839 151.979 46.5278L151.979 46.528C151.511 46.6721 151.015 46.4086 150.874 45.9401C150.315 44.1108 149.252 42.7005 147.634 41.6888L147.634 41.6887C147.221 41.4304 147.094 40.8852 147.351 40.4703C147.608 40.0539 148.155 39.9259 148.569 40.1853" fill="#F06111"/>
<path fill-rule="evenodd" clip-rule="evenodd" d="M170.65 42.9C170.991 43.2914 171.297 43.7139 171.559 44.1647C171.675 44.3654 171.882 44.7925 171.918 45.1608C171.958 45.5532 171.83 45.8865 171.491 46.066C171.041 46.3039 170.678 46.285 170.397 46.149C170.125 46.0183 169.911 45.7571 169.773 45.4046C169.51 44.731 169.533 43.6954 169.658 43.1029C169.295 42.7373 168.899 42.4068 168.475 42.114C165.321 39.9333 160.753 40.8194 157.276 44.1972C156.059 45.3799 155.501 47.835 155.23 50.4792C154.807 54.5962 155.147 59.183 155.204 60.5274C155.218 60.8594 155.189 61.057 155.173 61.0966C155.094 61.2914 154.952 61.3438 154.852 61.3643C154.708 61.3924 154.592 61.3663 154.498 61.319C154.371 61.2542 154.266 61.1384 154.215 60.9581C154.188 60.8585 154.179 60.7194 154.18 60.571C154.182 60.4681 154.201 60.3553 154.179 60.2819C154.038 59.8115 153.869 59.3526 153.704 58.8904C153.152 57.3364 152.446 55.8829 151.665 54.4322C149.181 49.8227 146.774 44.9491 142.76 41.4676C142.581 41.3113 142.559 41.0371 142.715 40.8557C142.87 40.6744 143.142 40.6542 143.324 40.8106C147.417 44.3609 149.89 49.3181 152.423 54.0189C153.088 55.2529 153.699 56.4895 154.211 57.7847C154.128 55.4817 154.101 52.2927 154.48 49.4652C154.817 46.9506 155.494 44.7229 156.677 43.5732C160.486 39.8728 165.51 39.01 168.964 41.3991C169.333 41.6548 169.686 41.9369 170.015 42.2435C171.757 38.9687 175.568 37.6117 178.975 39.1173C179.194 39.2136 179.292 39.4698 179.197 39.689C179.1 39.9082 178.846 40.008 178.627 39.9116C175.557 38.5549 172.116 39.8541 170.65 42.9ZM170.416 43.9914C170.558 44.1879 170.691 44.3918 170.814 44.6028C170.88 44.7161 170.993 44.934 171.043 45.1482C171.054 45.1984 171.057 45.2771 171.057 45.3135C170.939 45.3742 170.847 45.404 170.77 45.3668C170.675 45.3209 170.625 45.2106 170.576 45.0872C170.455 44.7776 170.411 44.3655 170.416 43.9914Z" fill="#F06111"/>
<path fill-rule="evenodd" clip-rule="evenodd" d="M170.99 44.9725C171.011 45.0298 171.03 45.0891 171.043 45.1482C171.054 45.1983 171.057 45.2771 171.058 45.3135C170.94 45.3742 170.847 45.404 170.77 45.3668C170.745 45.3548 170.724 45.3384 170.704 45.3186C170.682 45.2964 170.663 45.2698 170.646 45.2402C170.645 45.2389 170.645 45.2376 170.644 45.2363C170.619 45.1918 170.597 45.1407 170.577 45.0871C170.541 44.9969 170.512 44.8979 170.489 44.7937C170.489 44.7929 170.489 44.7921 170.489 44.7912C170.433 44.5386 170.412 44.2555 170.416 43.9913C170.558 44.1879 170.691 44.3918 170.815 44.6028C170.858 44.6772 170.921 44.7968 170.974 44.9308C170.974 44.9309 170.974 44.9311 170.974 44.9313C170.98 44.9449 170.985 44.9586 170.99 44.9725ZM171.491 46.0659C171.83 45.8865 171.958 45.5532 171.918 45.1608C171.882 44.7925 171.676 44.3654 171.559 44.1647C171.297 43.7139 170.991 43.2913 170.65 42.9C172.117 39.8541 175.558 38.5549 178.628 39.9116C178.846 40.0079 179.1 39.9081 179.197 39.6889C179.292 39.4698 179.194 39.2136 178.975 39.1173C175.711 37.6749 172.077 38.8597 170.245 41.841C170.165 41.9717 170.088 42.1059 170.015 42.2435C169.902 42.138 169.786 42.0354 169.667 41.9357C169.441 41.7459 169.206 41.5668 168.964 41.3991C165.51 39.01 160.486 39.8728 156.677 43.5731C155.494 44.7228 154.817 46.9506 154.48 49.4652C154.166 51.8097 154.131 54.4029 154.175 56.5333C154.184 56.9721 154.197 57.3913 154.211 57.7846C154.058 57.3964 153.895 57.0135 153.725 56.6343C153.328 55.7484 152.889 54.883 152.423 54.0189C152.229 53.6579 152.035 53.2955 151.84 52.9323C149.501 48.5651 147.103 44.0883 143.324 40.8105C143.142 40.6542 142.87 40.6744 142.716 40.8557C142.56 41.037 142.581 41.3113 142.761 41.4675C146.435 44.655 148.763 49.0093 151.036 53.2595C151.246 53.6516 151.455 54.0429 151.665 54.4322C152.446 55.8829 153.152 57.3364 153.704 58.8903C153.725 58.9492 153.746 59.008 153.767 59.0668C153.912 59.4696 154.056 59.8714 154.18 60.2819C154.195 60.3332 154.19 60.4037 154.185 60.4767C154.183 60.5081 154.181 60.54 154.18 60.571C154.179 60.7194 154.188 60.8585 154.215 60.9581C154.266 61.1383 154.371 61.2542 154.498 61.319C154.592 61.3663 154.708 61.3924 154.852 61.3643C154.952 61.3437 155.095 61.2914 155.173 61.0966C155.19 61.0569 155.218 60.8594 155.205 60.5274C155.197 60.3525 155.185 60.1228 155.17 59.8464C155.072 57.9978 154.862 54.0607 155.23 50.4791C155.501 47.835 156.059 45.3798 157.276 44.1972C160.753 40.8193 165.321 39.9332 168.476 42.114C168.899 42.4068 169.295 42.7373 169.658 43.1028C169.533 43.6954 169.51 44.731 169.774 45.4046C169.911 45.757 170.126 46.0183 170.397 46.1489C170.678 46.285 171.041 46.3039 171.491 46.0659ZM169.172 43.2595C169.13 43.5513 169.109 43.8923 169.118 44.2359C169.131 44.6794 169.194 45.1646 169.352 45.5692L169.353 45.5693C169.519 45.9939 169.798 46.3619 170.2 46.556C170.626 46.762 171.141 46.7624 171.702 46.4657L171.703 46.4655C172.247 46.1776 172.421 45.6379 172.368 45.1156C172.322 44.6488 172.076 44.1537 171.95 43.9374C171.725 43.5499 171.469 43.1831 171.189 42.8384C172.617 40.1938 175.691 39.108 178.445 40.3251L178.445 40.3254C178.895 40.5233 179.414 40.3165 179.611 39.8718L179.612 39.8691L179.612 39.8691C179.805 39.4246 179.607 38.9016 179.158 38.7037C175.706 37.1783 171.859 38.4177 169.899 41.5407C169.681 41.3596 169.454 41.1884 169.221 41.0273L169.221 41.0272C165.535 38.4773 160.272 39.45 156.362 43.2489L156.362 43.2489C155.701 43.8912 155.207 44.8076 154.835 45.8565C154.462 46.91 154.203 48.1283 154.032 49.4052L154.475 49.4644L154.032 49.4052C154.032 49.4052 154.032 49.4052 154.032 49.4052C153.762 51.4192 153.696 53.6077 153.709 55.5321C153.427 54.9505 153.129 54.3763 152.821 53.8045L152.821 53.8044C152.625 53.4406 152.429 53.0745 152.232 52.707C149.902 48.354 147.466 43.8042 143.62 40.469L143.619 40.4679C143.25 40.1501 142.691 40.1883 142.372 40.5617C142.053 40.9331 142.098 41.4909 142.464 41.8089L142.464 41.809C146.072 44.9388 148.362 49.2189 150.643 53.4828C150.85 53.8712 151.058 54.2594 151.267 54.6466L151.267 54.6467C152.043 56.0871 152.737 57.518 153.278 59.0416L153.278 59.0426C153.3 59.1022 153.321 59.1614 153.342 59.2203C153.484 59.6141 153.62 59.9944 153.738 60.3823C153.738 60.3858 153.737 60.3899 153.737 60.3947C153.737 60.4094 153.736 60.4238 153.734 60.4436C153.734 60.4495 153.733 60.4559 153.733 60.463C153.731 60.4901 153.729 60.5253 153.728 60.5623L153.728 60.567L153.728 60.567C153.727 60.7242 153.735 60.9151 153.779 61.0776L153.78 61.0809C153.864 61.3801 154.051 61.5985 154.292 61.7216L154.295 61.7228C154.47 61.8112 154.688 61.8569 154.939 61.8081L154.944 61.8071L154.944 61.8071C155.126 61.7697 155.435 61.6538 155.592 61.267C155.617 61.2048 155.628 61.1408 155.633 61.1105C155.64 61.0659 155.646 61.0142 155.651 60.9567C155.66 60.8413 155.664 60.691 155.656 60.5092L155.656 60.5082C155.649 60.3295 155.636 60.0964 155.621 59.817C155.523 57.9621 155.316 54.0672 155.68 50.5253L155.68 50.5252C155.814 49.217 156.017 47.9733 156.332 46.9192C156.648 45.8575 157.064 45.0342 157.591 44.5214C160.974 41.2346 165.304 40.4707 168.218 42.4859C168.556 42.7193 168.875 42.9777 169.172 43.2595Z" fill="#F06111"/>
<path d="M53.5146 33.7128L54.445 31.5951C56.241 27.5078 60.7512 25.343 65.0636 26.4985L139.46 46.4329C143.42 47.494 146.171 51.0869 146.162 55.1869L146.154 58.5239L53.5146 33.7128Z" fill="#F06111"/>
<path d="M29.4154 120.386L29.2261 123.047C28.9188 127.369 31.7202 131.301 35.9052 132.423L110.59 152.434C114.55 153.495 118.728 151.759 120.771 148.204L122.433 145.31L29.4154 120.386Z" fill="#F06111"/>
<path fill-rule="evenodd" clip-rule="evenodd" d="M112.863 126.737C111.968 127.382 111.044 128.135 110.119 128.889C107.84 130.748 105.56 132.607 103.698 132.831C100.701 133.214 98.8347 129.179 96.9883 125.186C96.5142 124.16 96.0413 123.138 95.551 122.193C93.151 117.572 90.1765 114.786 87.0305 112.948C83.8074 111.09 80.4128 110.18 76.941 109.25C73.5464 108.34 70.0746 107.41 66.307 107.892C65.064 108.052 63.7719 108.36 62.4766 108.669C59.8459 109.297 57.2017 109.928 54.9271 109.319C53.5967 108.962 52.3871 108.2 51.2058 107.343L29.8521 120.503L31.5494 120.958L40.1131 123.253L50.4513 126.023L60.7123 128.772L70.9733 131.522L81.3115 134.292L91.5725 137.041L101.834 139.791L112.172 142.561L120.735 144.855L122.433 145.31L112.863 126.737Z" fill="#C8BBAB"/>
<path fill-rule="evenodd" clip-rule="evenodd" d="M110.847 80.9957C110.736 80.7713 110.624 80.5501 110.512 80.3331C108.112 75.7115 105.137 72.9253 101.991 71.0877C98.7681 69.2295 95.3735 68.3199 91.9017 67.3896C88.5071 66.48 85.0353 65.5498 81.2677 66.0322C80.0247 66.1913 78.7326 66.4998 77.4373 66.809C75.5396 67.262 73.6349 67.7167 71.8669 67.7061L82.1665 87.7159L95.4858 91.2848L110.847 80.9957Z" fill="#C8BBAB"/>
<path d="M83.9161 111.695C83.9698 112.476 83.1146 113.19 82.4181 112.833C81.859 112.546 81.7822 111.756 82.1064 111.218C82.2851 110.921 82.4227 110.599 82.5135 110.26L83.218 107.631L84.3601 100.508L84.6968 96.3136C84.9706 92.9029 82.9611 89.322 81.6047 86.6094L96.1447 90.8564L92.6007 93.8899C90.1383 95.9975 88.2297 98.6787 87.0426 101.697L84.8405 107.297L84.4757 108.196C84.0216 109.313 83.8345 110.511 83.9161 111.695Z" fill="#C8BBAB"/>
<g opacity="0.6" filter="url(#filter0_b_308_3453)">
<path d="M81.5217 86.3857L53.561 33.6038L145.705 58.2937L96.7576 90.5055C95.9915 91.0097 95.7241 92.0076 96.1355 92.8273L122.419 145.197L29.8385 120.39L80.8761 88.7695C81.6849 88.2685 81.9671 87.2264 81.5217 86.3857Z" fill="#FDE6CB"/>
</g>
<defs>
<filter id="filter0_b_308_3453" x="-20.1614" y="-16.3962" width="215.866" height="211.593" filterUnits="userSpaceOnUse" color-interpolation-filters="sRGB">
<feFlood flood-opacity="0" result="BackgroundImageFix"/>
<feGaussianBlur in="BackgroundImageFix" stdDeviation="25"/>
<feComposite in2="SourceAlpha" operator="in" result="effect1_backgroundBlur_308_3453"/>
<feBlend mode="normal" in="SourceGraphic" in2="effect1_backgroundBlur_308_3453" result="shape"/>
</filter>
</defs>
</svg>
